<?xml version="1.0" encoding="UTF-8" standalone="no"?><!-- Generator: Gravit.io --><svg xmlns="http://www.w3.org/2000/svg" xmlns:xlink="http://www.w3.org/1999/xlink" style="isolation:isolate" viewBox="0 0 435.985 317.212" width="435.985pt" height="317.212pt"><defs><clipPath id="_clipPath_tcEL6JvxNeZci9Xfcb1ibF4CYRsRQ6Tq"><rect width="435.985" height="317.212"/></clipPath></defs><g clip-path="url(#_clipPath_tcEL6JvxNeZci9Xfcb1ibF4CYRsRQ6Tq)"><clipPath id="_clipPath_NZ8XC20xdzWrOHuIEM6UCYh2kHAnoAts"><path d=" M 0 0 L 0 317.212 L 435.985 317.212 L 435.985 0 L 0 0 Z " fill="rgb(255,255,255)"/></clipPath><g clip-path="url(#_clipPath_NZ8XC20xdzWrOHuIEM6UCYh2kHAnoAts)"><path d=" M 64.525 283.917 C 149.503 328.309 287.277 328.31 372.252 283.918 C 457.23 239.524 457.23 167.551 372.252 123.158 C 287.276 78.765 149.501 78.765 64.525 123.157 C -20.452 167.549 -20.452 239.524 64.525 283.917 Z " fill="rgb(239,239,239)"/><path d=" M 32.799 209.455 C 32.799 209.455 36.316 199.781 37.1 189.233 C 37.885 178.685 32.776 162.537 23.411 157.13 C 14.045 151.722 8.986 158.407 12.124 164.166 C 15.262 169.925 25.855 186.12 25.985 200.122 L 32.799 209.455 Z " fill="rgb(0,180,166)"/><path d=" M 29.538 209.224 L 29.456 209.218 C 29.183 209.173 28.999 208.916 29.044 208.643 L 29.065 208.513 C 29.851 203.756 30.927 197.239 29.513 185.331 C 27.922 171.931 23.547 165.732 19.476 161.434 C 19.287 161.234 19.296 160.918 19.496 160.727 C 19.697 160.539 20.012 160.548 20.203 160.747 C 24.385 165.163 28.881 171.524 30.505 185.214 C 31.937 197.263 30.847 203.859 30.051 208.677 L 30.03 208.805 C 29.99 209.051 29.778 209.224 29.538 209.224 Z " fill="rgb(254,254,254)"/><path d=" M 27.473 215.452 C 26.501 210.509 22.812 204.956 15.786 201.689 C 8.759 198.422 1.532 196.515 0.225 192.308 C -1.083 188.1 3.363 183.229 12.517 185.272 C 21.67 187.316 31.477 200.916 30.954 210.069 L 27.473 215.452 Z " fill="rgb(0,180,166)"/><path d=" M 29.536 212.762 C 29.293 212.762 29.08 212.584 29.043 212.337 C 27.169 199.937 16.65 190.471 8.381 189.731 C 8.107 189.707 7.904 189.464 7.928 189.188 C 7.953 188.912 8.199 188.716 8.471 188.735 C 17.109 189.509 28.088 199.331 30.031 212.186 C 30.073 212.46 29.884 212.715 29.612 212.756 L 29.536 212.762 Z " fill="rgb(254,254,254)"/><path d=" M 370.204 120.469 C 370.204 120.469 365.538 110.153 366.303 101.306 C 367.085 92.259 370.315 83.789 377.979 77.839 C 385.644 71.888 391.606 74.585 392.87 76.762 C 394.133 78.94 394.162 83.232 388.452 87.903 C 382.742 92.573 376.503 105.324 378.268 118.06 L 375.646 125.511 L 370.204 120.469 Z " fill="rgb(0,180,166)"/><path d=" M 373.022 121.451 C 372.845 121.451 372.673 121.357 372.583 121.19 C 370.636 117.606 370.34 102.738 373.478 94.421 C 377.296 84.303 384.181 78.584 389.351 76.606 C 389.606 76.508 389.898 76.636 389.997 76.894 C 390.095 77.152 389.966 77.441 389.709 77.539 C 384.741 79.441 378.115 84.966 374.414 94.774 C 371.418 102.716 371.638 117.356 373.461 120.713 C 373.593 120.955 373.503 121.259 373.26 121.391 L 373.022 121.451 Z " fill="rgb(254,254,254)"/><path d=" M 392.269 141.993 C 393.051 136.851 393.176 133.693 397.966 130.546 C 402.757 127.398 407.02 125.169 407.363 120.676 C 407.705 116.183 404.744 111.12 404.896 107.202 C 405.048 103.284 407.45 101.445 412.51 97.998 C 417.571 94.552 422.757 88.674 417.787 84.48 C 412.815 80.287 405.405 84.183 402.028 87.109 C 398.651 90.034 395.91 91.115 390.732 89.737 C 385.553 88.359 380.487 91.945 381.718 98.552 C 382.951 105.159 382.313 108.165 378.146 107.933 C 373.979 107.701 367.864 112.03 372.76 122.004 L 392.269 141.993 Z " fill="rgb(0,180,166)"/><path d=" M 381.719 131.682 L 381.659 131.679 C 381.385 131.646 381.189 131.397 381.222 131.123 C 383.597 111.171 403.395 89.752 412.398 86.636 C 412.653 86.547 412.943 86.684 413.034 86.945 C 413.124 87.206 412.986 87.491 412.724 87.581 C 403.919 90.628 384.548 111.643 382.214 131.241 C 382.184 131.495 381.968 131.682 381.719 131.682 Z " fill="rgb(254,254,254)"/><path d=" M 390.29 109.645 C 390.076 109.645 389.878 109.507 389.811 109.291 C 387.702 102.381 386.969 95.632 386.962 95.564 C 386.933 95.29 387.132 95.043 387.407 95.015 C 387.679 94.985 387.926 95.184 387.957 95.459 C 387.963 95.525 388.687 102.184 390.768 108.999 C 390.848 109.263 390.7 109.543 390.436 109.623 L 390.29 109.645 Z " fill="rgb(254,254,254)"/><path d=" M 384.701 120.442 C 384.509 120.442 384.326 120.33 384.243 120.143 C 384.131 119.89 384.247 119.596 384.5 119.484 C 393.481 115.525 401.84 118.324 402.192 118.445 C 402.453 118.535 402.591 118.819 402.502 119.08 C 402.412 119.342 402.128 119.482 401.867 119.39 C 401.783 119.363 393.518 116.603 384.902 120.399 L 384.701 120.442 Z " fill="rgb(254,254,254)"/><path d=" M 250.884 21.108 L 226.512 7.036 L 202.149 21.107 L 226.512 35.178 L 250.884 21.108 Z " fill="rgb(239,239,239)"/><path d=" M 226.512 63.321 L 250.884 49.25 L 250.884 21.108 L 226.512 35.178 L 226.512 63.321 Z " fill="rgb(229,228,228)"/><path d=" M 231.959 51.037 L 232.501 51.037 L 232.501 48.979 L 231.106 49.798 L 231.796 49.921 L 231.959 51.037 Z  M 230.76 50.117 L 230.76 52.878 C 230.76 53.215 230.859 53.465 231.03 53.564 C 231.201 53.663 231.399 53.588 231.537 53.508 C 232.059 53.206 232.501 52.358 232.501 51.656 L 232.501 51.412 L 231.634 51.412 L 231.464 50.243 L 230.76 50.117 Z  M 231.209 53.986 C 231.078 53.986 230.955 53.953 230.842 53.889 C 230.552 53.721 230.385 53.353 230.385 52.878 L 230.385 49.897 L 230.385 49.89 L 230.385 49.67 L 230.538 49.697 L 232.876 48.324 L 232.876 51.656 C 232.876 52.504 232.37 53.46 231.724 53.832 C 231.548 53.934 231.373 53.986 231.209 53.986 Z " fill="rgb(254,254,254)"/><path d=" M 231.63 56.363 C 231.527 56.363 231.443 56.279 231.443 56.175 L 231.443 53.67 C 231.443 53.567 231.527 53.483 231.63 53.483 C 231.734 53.483 231.818 53.567 231.818 53.67 L 231.818 56.175 C 231.818 56.279 231.734 56.363 231.63 56.363 Z " fill="rgb(254,254,254)"/><path d=" M 230.542 56.991 L 230.379 56.897 L 230.448 56.641 L 232.625 55.384 C 232.711 55.334 232.829 55.363 232.88 55.453 L 232.812 55.709 L 230.635 56.966 L 230.542 56.991 Z " fill="rgb(254,254,254)"/><path d=" M 238.298 52.677 L 238.094 52.624 C 237.952 52.543 237.87 52.378 237.87 52.174 L 237.87 51.66 C 237.87 51.556 237.954 51.472 238.057 51.472 C 238.161 51.472 238.245 51.556 238.245 51.66 L 238.245 52.174 L 238.28 52.299 L 238.404 52.266 C 238.568 52.17 238.752 51.798 238.752 51.419 L 238.752 48.088 C 238.752 47.985 238.836 47.901 238.939 47.901 C 239.043 47.901 239.127 47.985 239.127 48.088 L 239.127 51.419 C 239.127 51.908 238.897 52.411 238.593 52.59 C 238.495 52.648 238.393 52.677 238.298 52.677 Z " fill="rgb(254,254,254)"/><path d=" M 239.844 45.32 C 239.562 45.32 239.244 45.418 238.91 45.611 C 237.786 46.26 236.855 47.77 236.716 49.105 L 240.931 46.672 C 240.91 46.085 240.706 45.653 240.352 45.449 C 240.203 45.363 240.031 45.32 239.844 45.32 Z  M 236.324 49.765 L 236.324 49.44 C 236.324 47.913 237.4 46.05 238.722 45.286 C 239.399 44.895 240.045 44.839 240.54 45.124 C 241.035 45.411 241.308 45.998 241.308 46.779 L 241.308 46.887 L 236.324 49.765 Z " fill="rgb(254,254,254)"/><path d=" M 245.032 48.839 C 244.928 48.839 244.844 48.755 244.844 48.651 L 244.844 42.271 C 244.844 42.168 244.928 42.084 245.032 42.084 C 245.135 42.084 245.219 42.168 245.219 42.271 L 245.219 48.651 C 245.219 48.755 245.135 48.839 245.032 48.839 Z " fill="rgb(254,254,254)"/><path d=" M 244.483 43.726 L 244.409 43.71 C 244.313 43.669 244.27 43.559 244.311 43.464 L 244.978 41.923 L 245.722 42.783 L 245.704 43.047 L 245.439 43.028 L 245.086 42.619 L 244.655 43.613 L 244.483 43.726 Z " fill="rgb(254,254,254)"/><path d=" M 246.766 47.85 C 246.663 47.85 246.579 47.766 246.579 47.662 L 246.579 41.283 C 246.579 41.179 246.663 41.095 246.766 41.095 C 246.87 41.095 246.954 41.179 246.954 41.283 L 246.954 47.662 C 246.954 47.766 246.87 47.85 246.766 47.85 Z " fill="rgb(254,254,254)"/><path d=" M 246.217 42.738 L 246.143 42.722 C 246.047 42.681 246.004 42.571 246.045 42.475 L 246.712 40.934 L 247.457 41.794 L 247.438 42.058 L 247.173 42.039 L 246.82 41.631 L 246.389 42.625 L 246.217 42.738 Z " fill="rgb(254,254,254)"/><path d=" M 226.512 63.321 L 202.14 49.25 L 202.149 21.107 L 226.512 35.178 L 226.512 63.321 Z " fill="rgb(216,217,217)"/><path d=" M 215.649 28.906 L 240.007 14.827 L 237.253 13.235 L 212.894 27.314 L 215.649 28.906 Z " fill="rgb(254,254,254)"/><path d=" M 205.846 37.242 L 214.568 42.278 C 215.524 42.83 216.3 44.173 216.3 45.278 L 216.3 50.659 C 216.3 51.763 215.525 52.211 214.568 51.659 L 205.846 46.623 C 204.889 46.071 204.114 44.727 204.114 43.623 L 204.114 38.242 C 204.114 37.137 204.89 36.689 205.846 37.242 Z " fill="rgb(0,180,166)"/><path d=" M 205.17 38.587 L 205.502 38.779 L 205.502 44.755 L 205.17 44.563 L 205.17 38.587 Z " fill="rgb(0,180,166)"/><path d=" M 206.52 39.366 L 207.091 39.702 L 207.09 45.678 L 206.52 45.342 L 206.52 39.366 Z " fill="rgb(0,180,166)"/><path d=" M 207.869 40.144 L 208.2 40.335 L 208.2 46.312 L 207.869 46.12 L 207.869 40.144 Z " fill="rgb(0,180,166)"/><path d=" M 208.886 40.721 L 209.549 41.114 L 209.549 47.091 L 208.886 46.697 L 208.886 40.721 Z " fill="rgb(0,180,166)"/><path d=" M 210.567 41.701 L 210.898 41.892 L 210.898 47.869 L 210.567 47.678 L 210.567 41.701 Z " fill="rgb(0,180,166)"/><path d=" M 211.538 42.25 L 212.248 42.671 L 212.247 48.647 L 211.538 48.226 L 211.538 42.25 Z " fill="rgb(0,180,166)"/><path d=" M 213.265 43.258 L 213.597 43.45 L 213.596 49.426 L 213.265 49.235 L 213.265 43.258 Z " fill="rgb(0,180,166)"/><path d=" M 214.035 43.696 L 214.2 43.792 L 214.2 49.768 L 214.035 49.673 L 214.035 43.696 Z " fill="rgb(0,180,166)"/><path d=" M 212.65 42.933 L 212.816 43.029 L 212.815 49.005 L 212.65 48.909 L 212.65 42.933 Z " fill="rgb(0,180,166)"/><path d=" M 209.932 41.341 L 210.098 41.437 L 210.098 47.413 L 209.932 47.317 L 209.932 41.341 Z " fill="rgb(0,180,166)"/><path d=" M 208.444 40.487 L 208.61 40.583 L 208.61 46.559 L 208.444 46.463 L 208.444 40.487 Z " fill="rgb(0,180,166)"/><path d=" M 207.375 39.897 L 207.541 39.993 L 207.541 45.969 L 207.375 45.873 L 207.375 39.897 Z " fill="rgb(0,180,166)"/><path d=" M 205.926 39.016 L 206.091 39.113 L 206.091 45.089 L 205.926 44.993 L 205.926 39.016 Z " fill="rgb(0,180,166)"/><path d=" M 214.614 44.037 L 214.945 44.228 L 214.945 50.204 L 214.614 50.013 L 214.614 44.037 Z " fill="rgb(0,180,166)"/><path d=" M 218.388 16.416 L 189.953 0 L 161.519 16.416 L 189.953 32.833 L 218.388 16.416 Z " fill="rgb(239,239,239)"/><path d=" M 177.767 25.796 L 206.201 9.379 L 203.444 7.789 L 175.011 24.204 L 177.767 25.796 Z " fill="rgb(254,254,254)"/><path d=" M 189.953 84.428 L 218.388 68.012 L 218.388 16.416 L 189.953 32.833 L 189.953 84.428 Z " fill="rgb(229,228,228)"/><path d=" M 195.4 72.144 L 195.941 72.144 L 195.941 70.086 L 194.546 70.905 L 195.237 71.029 L 195.4 72.144 Z  M 194.201 71.224 L 194.201 73.985 C 194.201 74.323 194.299 74.573 194.47 74.672 C 194.639 74.769 194.839 74.695 194.977 74.616 C 195.5 74.313 195.941 73.466 195.941 72.764 L 195.941 72.519 L 195.076 72.519 L 194.905 71.35 L 194.201 71.224 Z  M 194.649 75.093 C 194.518 75.093 194.395 75.061 194.283 74.996 C 193.993 74.829 193.826 74.46 193.826 73.985 L 193.826 71.004 L 193.826 70.998 L 193.826 70.777 L 193.978 70.804 L 196.316 69.431 L 196.316 72.764 C 196.316 73.611 195.81 74.567 195.165 74.94 C 194.989 75.042 194.813 75.093 194.649 75.093 Z " fill="rgb(254,254,254)"/><path d=" M 195.071 77.47 C 194.967 77.47 194.883 77.386 194.883 77.283 L 194.883 74.778 C 194.883 74.674 194.967 74.59 195.071 74.59 C 195.174 74.59 195.258 74.674 195.258 74.778 L 195.258 77.283 C 195.258 77.386 195.174 77.47 195.071 77.47 Z " fill="rgb(254,254,254)"/><path d=" M 193.983 78.098 L 193.821 78.005 L 193.889 77.748 L 196.066 76.492 L 196.322 76.56 L 196.253 76.817 L 194.077 78.074 L 193.983 78.098 Z " fill="rgb(254,254,254)"/><path d=" M 201.74 73.785 L 201.536 73.732 C 201.393 73.65 201.311 73.486 201.311 73.281 L 201.311 72.767 C 201.311 72.664 201.395 72.58 201.499 72.58 C 201.602 72.58 201.686 72.664 201.686 72.767 L 201.686 73.281 L 201.721 73.407 L 201.844 73.374 C 202.009 73.277 202.193 72.905 202.193 72.527 L 202.193 69.196 C 202.193 69.092 202.277 69.008 202.38 69.008 C 202.484 69.008 202.568 69.092 202.568 69.196 L 202.568 72.527 C 202.568 73.015 202.338 73.518 202.035 73.698 C 201.935 73.756 201.835 73.785 201.74 73.785 Z " fill="rgb(254,254,254)"/><path d=" M 203.286 66.428 C 203.003 66.428 202.685 66.525 202.351 66.718 C 201.227 67.367 200.296 68.877 200.158 70.212 L 204.372 67.779 C 204.35 67.192 204.146 66.761 203.793 66.556 C 203.643 66.47 203.472 66.428 203.286 66.428 Z  M 199.765 70.872 L 199.765 70.547 C 199.765 69.02 200.841 67.156 202.164 66.393 C 202.84 66.003 203.485 65.946 203.98 66.232 C 204.475 66.518 204.749 67.105 204.749 67.886 L 204.749 67.994 L 199.765 70.872 Z " fill="rgb(254,254,254)"/><path d=" M 208.473 69.946 C 208.37 69.946 208.286 69.862 208.286 69.759 L 208.286 63.379 C 208.286 63.275 208.37 63.191 208.473 63.191 C 208.577 63.191 208.661 63.275 208.661 63.379 L 208.661 69.759 C 208.661 69.862 208.577 69.946 208.473 69.946 Z " fill="rgb(254,254,254)"/><path d=" M 207.924 64.833 L 207.85 64.818 C 207.754 64.777 207.711 64.666 207.753 64.571 L 208.419 63.031 L 209.164 63.89 L 209.145 64.154 L 208.88 64.135 L 208.527 63.727 L 208.096 64.721 L 207.924 64.833 Z " fill="rgb(254,254,254)"/><path d=" M 210.207 68.957 C 210.103 68.957 210.019 68.873 210.019 68.77 L 210.019 62.39 C 210.019 62.286 210.103 62.202 210.207 62.202 C 210.31 62.202 210.394 62.286 210.394 62.39 L 210.394 68.77 C 210.394 68.873 210.31 68.957 210.207 68.957 Z " fill="rgb(254,254,254)"/><path d=" M 209.659 63.845 L 209.585 63.829 C 209.489 63.788 209.446 63.678 209.487 63.583 L 210.154 62.042 L 210.898 62.901 L 210.879 63.165 L 210.615 63.146 L 210.261 62.738 L 209.831 63.732 L 209.659 63.845 Z " fill="rgb(254,254,254)"/><path d=" M 189.953 84.428 L 161.52 68.012 L 161.519 16.416 L 189.953 32.833 L 189.953 84.428 Z " fill="rgb(216,217,217)"/><path d=" M 167.305 57.282 L 176.026 62.318 C 176.983 62.87 177.758 64.214 177.758 65.318 L 177.759 70.699 C 177.759 71.803 176.983 72.251 176.027 71.699 L 167.304 66.663 C 166.348 66.111 165.572 64.768 165.572 63.663 L 165.572 58.282 C 165.573 57.178 166.348 56.73 167.305 57.282 Z " fill="rgb(239,239,239)"/><path d=" M 166.629 58.627 L 166.96 58.819 L 166.96 64.795 L 166.629 64.604 L 166.629 58.627 Z " fill="rgb(216,217,217)"/><path d=" M 167.978 59.406 L 168.549 59.742 L 168.549 65.718 L 167.978 65.382 L 167.978 59.406 Z " fill="rgb(216,217,217)"/><path d=" M 169.327 60.184 L 169.658 60.376 L 169.658 66.352 L 169.327 66.161 L 169.327 60.184 Z " fill="rgb(216,217,217)"/><path d=" M 170.344 60.761 L 171.007 61.154 L 171.007 67.131 L 170.344 66.738 L 170.344 60.761 Z " fill="rgb(216,217,217)"/><path d=" M 172.025 61.742 L 172.357 61.933 L 172.357 67.909 L 172.025 67.718 L 172.025 61.742 Z " fill="rgb(216,217,217)"/><path d=" M 172.997 62.29 L 173.706 62.711 L 173.706 68.688 L 172.997 68.266 L 172.997 62.29 Z " fill="rgb(216,217,217)"/><path d=" M 174.723 63.299 L 175.055 63.49 L 175.055 69.466 L 174.723 69.275 L 174.723 63.299 Z " fill="rgb(216,217,217)"/><path d=" M 175.493 63.737 L 175.659 63.832 L 175.658 69.808 L 175.493 69.713 L 175.493 63.737 Z " fill="rgb(216,217,217)"/><path d=" M 174.108 62.973 L 174.274 63.069 L 174.273 69.045 L 174.108 68.95 L 174.108 62.973 Z " fill="rgb(216,217,217)"/><path d=" M 171.391 61.381 L 171.556 61.477 L 171.556 67.453 L 171.391 67.358 L 171.391 61.381 Z " fill="rgb(216,217,217)"/><path d=" M 169.902 60.527 L 170.068 60.623 L 170.068 66.599 L 169.902 66.504 L 169.902 60.527 Z " fill="rgb(216,217,217)"/><path d=" M 168.834 59.937 L 168.999 60.033 L 168.999 66.009 L 168.834 65.913 L 168.834 59.937 Z " fill="rgb(216,217,217)"/><path d=" M 167.384 59.057 L 167.55 59.153 L 167.549 65.129 L 167.384 65.034 L 167.384 59.057 Z " fill="rgb(216,217,217)"/><path d=" M 176.072 64.077 L 176.404 64.268 L 176.403 70.245 L 176.072 70.053 L 176.072 64.077 Z " fill="rgb(216,217,217)"/><path d=" M 175.011 30.863 L 177.767 32.454 L 177.767 25.795 L 175.011 24.204 L 175.011 30.863 Z " fill="rgb(233,234,233)"/><path d=" M 133.086 70.357 L 112.774 58.631 L 84.341 75.047 L 104.651 86.774 L 133.086 70.357 Z " fill="rgb(239,239,239)"/><path d=" M 104.651 133.678 L 133.086 117.261 L 133.086 70.357 L 104.651 86.773 L 104.651 133.678 Z " fill="rgb(229,228,228)"/><path d=" M 110.098 121.394 L 110.639 121.394 L 110.639 119.336 L 109.245 120.154 L 109.935 120.278 L 110.098 121.394 Z  M 108.899 120.473 L 108.899 123.235 C 108.899 123.572 108.998 123.822 109.169 123.921 C 109.336 124.018 109.537 123.944 109.675 123.865 C 110.198 123.563 110.639 122.715 110.639 122.013 L 110.639 121.769 L 109.774 121.769 L 109.603 120.599 L 108.899 120.473 Z  M 109.346 124.342 C 109.216 124.342 109.093 124.31 108.981 124.245 C 108.691 124.078 108.524 123.709 108.524 123.235 L 108.524 120.253 L 108.524 120.247 L 108.524 120.026 L 108.676 120.053 L 111.014 118.68 L 111.014 122.013 C 111.014 122.861 110.508 123.817 109.863 124.189 C 109.686 124.291 109.511 124.342 109.346 124.342 Z " fill="rgb(254,254,254)"/><path d=" M 109.769 126.72 C 109.666 126.72 109.582 126.636 109.582 126.532 L 109.582 124.027 C 109.582 123.923 109.666 123.839 109.769 123.839 C 109.873 123.839 109.957 123.923 109.957 124.027 L 109.957 126.532 C 109.957 126.636 109.873 126.72 109.769 126.72 Z " fill="rgb(254,254,254)"/><path d=" M 108.68 127.348 L 108.518 127.254 L 108.586 126.998 L 110.764 125.741 L 111.02 125.81 L 110.952 126.066 L 108.774 127.323 L 108.68 127.348 Z " fill="rgb(254,254,254)"/><path d=" M 116.438 123.034 L 116.234 122.981 C 116.091 122.9 116.009 122.735 116.009 122.531 L 116.009 122.017 C 116.009 121.913 116.093 121.829 116.197 121.829 C 116.3 121.829 116.384 121.913 116.384 122.017 L 116.384 122.531 L 116.42 122.656 L 116.543 122.623 C 116.708 122.526 116.891 122.154 116.891 121.776 L 116.891 118.445 C 116.891 118.341 116.975 118.257 117.079 118.257 C 117.182 118.257 117.266 118.341 117.266 118.445 L 117.266 121.776 C 117.266 122.264 117.037 122.767 116.732 122.947 C 116.633 123.005 116.533 123.034 116.438 123.034 Z " fill="rgb(254,254,254)"/><path d=" M 117.984 115.677 C 117.702 115.677 117.383 115.775 117.049 115.968 C 115.925 116.616 114.995 118.126 114.856 119.461 L 119.07 117.029 C 119.048 116.442 118.844 116.01 118.491 115.806 C 118.341 115.72 118.17 115.677 117.984 115.677 Z  M 114.463 120.121 L 114.463 119.796 C 114.463 118.269 115.54 116.406 116.862 115.642 C 117.539 115.253 118.183 115.196 118.678 115.481 C 119.173 115.767 119.447 116.355 119.447 117.136 L 119.447 117.244 L 114.463 120.121 Z " fill="rgb(254,254,254)"/><path d=" M 123.171 119.196 C 123.068 119.196 122.984 119.112 122.984 119.008 L 122.984 112.628 C 122.984 112.524 123.068 112.44 123.171 112.44 C 123.275 112.44 123.359 112.524 123.359 112.628 L 123.359 119.008 C 123.359 119.112 123.275 119.196 123.171 119.196 Z " fill="rgb(254,254,254)"/><path d=" M 122.623 114.083 L 122.548 114.067 C 122.453 114.026 122.41 113.916 122.451 113.821 L 123.118 112.28 L 123.862 113.139 L 123.843 113.403 L 123.579 113.384 L 123.225 112.976 L 122.795 113.97 L 122.623 114.083 Z " fill="rgb(254,254,254)"/><path d=" M 124.905 118.207 C 124.801 118.207 124.717 118.123 124.717 118.019 L 124.717 111.639 C 124.717 111.536 124.801 111.452 124.905 111.452 C 125.008 111.452 125.092 111.536 125.092 111.639 L 125.092 118.019 C 125.092 118.123 125.008 118.207 124.905 118.207 Z " fill="rgb(254,254,254)"/><path d=" M 124.357 113.094 L 124.283 113.078 C 124.187 113.037 124.144 112.927 124.185 112.832 L 124.852 111.291 L 125.596 112.15 L 125.578 112.414 L 125.313 112.395 L 124.96 111.988 L 124.529 112.981 L 124.357 113.094 Z " fill="rgb(254,254,254)"/><path d=" M 104.651 133.678 L 84.342 121.952 L 84.341 75.047 L 104.651 86.774 L 104.651 133.678 Z " fill="rgb(216,217,217)"/><path d=" M 93.772 87.151 L 96.527 88.742 L 96.527 82.083 L 93.772 80.492 L 93.772 87.151 Z " fill="rgb(239,239,239)"/><path d=" M 96.527 82.083 L 124.961 65.667 L 122.204 64.077 L 93.772 80.492 L 96.527 82.083 Z " fill="rgb(254,254,254)"/><path d=" M 96.527 110.226 L 59.968 89.119 L 23.41 110.226 L 59.969 131.333 L 96.527 110.226 Z " fill="rgb(239,239,239)"/><path d=" M 59.969 159.475 L 96.527 138.368 L 96.527 110.225 L 59.969 131.332 L 59.969 159.475 Z " fill="rgb(229,228,228)"/><path d=" M 65.416 147.191 L 65.957 147.191 L 65.957 145.133 L 64.562 145.952 L 65.253 146.075 L 65.416 147.191 Z  M 64.216 146.271 L 64.216 149.032 C 64.216 149.369 64.315 149.62 64.486 149.719 C 64.656 149.816 64.855 149.741 64.993 149.663 C 65.515 149.36 65.957 148.513 65.957 147.81 L 65.957 147.566 L 65.091 147.566 L 64.921 146.397 L 64.216 146.271 Z  M 64.665 150.14 C 64.534 150.14 64.411 150.108 64.298 150.044 C 64.008 149.876 63.841 149.507 63.841 149.032 L 63.841 146.051 L 63.841 146.045 L 63.841 145.824 L 63.994 145.851 L 66.332 144.478 L 66.332 147.81 C 66.332 148.658 65.826 149.614 65.18 149.987 C 65.004 150.089 64.829 150.14 64.665 150.14 Z " fill="rgb(254,254,254)"/><path d=" M 65.087 152.517 C 64.983 152.517 64.899 152.433 64.899 152.33 L 64.899 149.825 C 64.899 149.721 64.983 149.638 65.087 149.638 C 65.19 149.638 65.274 149.721 65.274 149.825 L 65.274 152.33 C 65.274 152.433 65.19 152.517 65.087 152.517 Z " fill="rgb(254,254,254)"/><path d=" M 63.998 153.145 L 63.836 153.052 L 63.904 152.796 L 66.082 151.539 C 66.17 151.485 66.286 151.515 66.338 151.607 L 66.269 151.863 L 64.091 153.12 L 63.998 153.145 Z " fill="rgb(254,254,254)"/><path d=" M 71.755 148.832 L 71.55 148.779 C 71.408 148.697 71.326 148.533 71.326 148.328 L 71.326 147.814 C 71.326 147.711 71.41 147.627 71.513 147.627 C 71.617 147.627 71.701 147.711 71.701 147.814 L 71.701 148.328 L 71.737 148.454 L 71.859 148.422 C 72.024 148.324 72.208 147.952 72.208 147.574 L 72.208 144.243 C 72.208 144.139 72.292 144.055 72.395 144.055 C 72.499 144.055 72.583 144.139 72.583 144.243 L 72.583 147.574 C 72.583 148.062 72.354 148.565 72.05 148.744 C 71.951 148.803 71.85 148.832 71.755 148.832 Z " fill="rgb(254,254,254)"/><path d=" M 73.301 141.475 C 73.018 141.475 72.7 141.573 72.366 141.765 C 71.243 142.413 70.312 143.924 70.173 145.26 L 74.387 142.826 C 74.366 142.24 74.162 141.808 73.808 141.604 C 73.659 141.517 73.488 141.475 73.301 141.475 Z  M 69.781 145.92 L 69.781 145.595 C 69.781 144.067 70.856 142.203 72.178 141.44 C 72.855 141.051 73.502 140.993 73.996 141.279 C 74.492 141.565 74.764 142.153 74.764 142.933 L 74.764 143.041 L 69.781 145.92 Z " fill="rgb(254,254,254)"/><path d=" M 78.488 144.993 C 78.384 144.993 78.3 144.909 78.3 144.805 L 78.3 138.426 C 78.3 138.322 78.384 138.238 78.488 138.238 C 78.591 138.238 78.675 138.322 78.675 138.426 L 78.675 144.805 C 78.675 144.909 78.591 144.993 78.488 144.993 Z " fill="rgb(254,254,254)"/><path d=" M 77.94 139.881 L 77.866 139.865 C 77.77 139.824 77.727 139.714 77.768 139.618 L 78.435 138.077 L 79.179 138.937 L 79.161 139.201 L 78.896 139.182 L 78.543 138.774 L 78.112 139.768 L 77.94 139.881 Z " fill="rgb(254,254,254)"/><path d=" M 80.222 144.005 C 80.119 144.005 80.035 143.921 80.035 143.817 L 80.035 137.437 C 80.035 137.333 80.119 137.249 80.222 137.249 C 80.326 137.249 80.41 137.333 80.41 137.437 L 80.41 143.817 C 80.41 143.921 80.326 144.005 80.222 144.005 Z " fill="rgb(254,254,254)"/><path d=" M 79.673 138.892 L 79.599 138.876 C 79.504 138.835 79.461 138.725 79.502 138.63 L 80.169 137.089 L 80.913 137.948 L 80.894 138.212 L 80.63 138.193 L 80.276 137.785 L 79.845 138.779 L 79.673 138.892 Z " fill="rgb(254,254,254)"/><path d=" M 59.969 159.475 L 23.41 138.368 L 23.41 110.226 L 59.969 131.333 L 59.969 159.475 Z " fill="rgb(216,217,217)"/><path d=" M 40.312 126.642 L 43.068 128.233 L 43.068 121.575 L 40.312 119.984 L 40.312 126.642 Z " fill="rgb(239,239,239)"/><path d=" M 43.068 121.575 L 79.626 100.468 L 76.87 98.877 L 40.312 119.984 L 43.068 121.575 Z " fill="rgb(254,254,254)"/><path d=" M 29.205 127.642 L 37.926 132.678 C 38.883 133.23 39.658 134.574 39.658 135.678 L 39.659 141.059 C 39.659 142.163 38.883 142.611 37.927 142.059 L 29.204 137.023 C 28.248 136.471 27.472 135.128 27.472 134.023 L 27.473 128.642 C 27.473 127.537 28.248 127.09 29.205 127.642 Z " fill="rgb(239,239,239)"/><path d=" M 28.529 128.987 L 28.86 129.179 L 28.86 135.155 L 28.529 134.964 L 28.529 128.987 Z " fill="rgb(216,217,217)"/><path d=" M 29.878 129.766 L 30.449 130.102 L 30.449 136.078 L 29.878 135.742 L 29.878 129.766 Z " fill="rgb(216,217,217)"/><path d=" M 31.227 130.544 L 31.559 130.736 L 31.558 136.712 L 31.227 136.521 L 31.227 130.544 Z " fill="rgb(216,217,217)"/><path d=" M 32.244 131.121 L 32.907 131.514 L 32.907 137.491 L 32.244 137.097 L 32.244 131.121 Z " fill="rgb(216,217,217)"/><path d=" M 33.925 132.101 L 34.256 132.293 L 34.256 138.269 L 33.925 138.078 L 33.925 132.101 Z " fill="rgb(216,217,217)"/><path d=" M 34.897 132.65 L 35.606 133.071 L 35.606 139.048 L 34.897 138.626 L 34.897 132.65 Z " fill="rgb(216,217,217)"/><path d=" M 36.623 133.659 L 36.955 133.85 L 36.955 139.826 L 36.623 139.635 L 36.623 133.659 Z " fill="rgb(216,217,217)"/><path d=" M 37.393 134.096 L 37.559 134.192 L 37.559 140.168 L 37.393 140.073 L 37.393 134.096 Z " fill="rgb(216,217,217)"/><path d=" M 36.008 133.333 L 36.174 133.429 L 36.174 139.405 L 36.008 139.309 L 36.008 133.333 Z " fill="rgb(216,217,217)"/><path d=" M 33.291 131.741 L 33.457 131.837 L 33.456 137.813 L 33.291 137.718 L 33.291 131.741 Z " fill="rgb(216,217,217)"/><path d=" M 31.802 130.887 L 31.968 130.983 L 31.968 136.959 L 31.802 136.864 L 31.802 130.887 Z " fill="rgb(216,217,217)"/><path d=" M 30.734 130.297 L 30.899 130.392 L 30.899 136.369 L 30.734 136.273 L 30.734 130.297 Z " fill="rgb(216,217,217)"/><path d=" M 29.284 129.417 L 29.45 129.513 L 29.45 135.489 L 29.284 135.393 L 29.284 129.417 Z " fill="rgb(216,217,217)"/><path d=" M 37.972 134.437 L 38.304 134.628 L 38.304 140.605 L 37.972 140.413 L 37.972 134.437 Z " fill="rgb(216,217,217)"/><path d=" M 88.403 53.94 L 59.969 37.524 L 31.534 53.94 L 59.969 70.357 L 88.403 53.94 Z " fill="rgb(239,239,239)"/><path d=" M 59.969 126.642 L 88.403 110.225 L 88.403 53.94 L 59.969 70.357 L 59.969 126.642 Z " fill="rgb(229,228,228)"/><path d=" M 65.416 114.358 L 65.957 114.358 L 65.957 112.3 L 64.562 113.119 L 65.253 113.242 L 65.416 114.358 Z  M 64.216 113.438 L 64.216 116.199 C 64.216 116.536 64.315 116.786 64.486 116.886 C 64.656 116.984 64.855 116.909 64.993 116.829 C 65.515 116.527 65.957 115.679 65.957 114.978 L 65.957 114.733 L 65.091 114.733 L 64.921 113.564 L 64.216 113.438 Z  M 64.665 117.307 C 64.534 117.307 64.411 117.275 64.298 117.21 C 64.008 117.043 63.841 116.674 63.841 116.199 L 63.841 113.218 L 63.841 113.212 L 63.841 112.991 L 63.994 113.018 L 66.332 111.645 L 66.332 114.978 C 66.332 115.825 65.826 116.781 65.18 117.154 C 65.004 117.256 64.829 117.307 64.665 117.307 Z " fill="rgb(254,254,254)"/><path d=" M 65.087 119.684 C 64.983 119.684 64.899 119.6 64.899 119.497 L 64.899 116.992 C 64.899 116.888 64.983 116.804 65.087 116.804 C 65.19 116.804 65.274 116.888 65.274 116.992 L 65.274 119.497 C 65.274 119.6 65.19 119.684 65.087 119.684 Z " fill="rgb(254,254,254)"/><path d=" M 63.998 120.313 L 63.836 120.219 L 63.904 119.963 L 66.082 118.706 C 66.17 118.655 66.286 118.684 66.338 118.775 L 66.269 119.031 L 64.091 120.288 L 63.998 120.313 Z " fill="rgb(254,254,254)"/><path d=" M 71.755 115.999 L 71.55 115.946 C 71.408 115.864 71.326 115.7 71.326 115.495 L 71.326 114.981 C 71.326 114.878 71.41 114.794 71.513 114.794 C 71.617 114.794 71.701 114.878 71.701 114.981 L 71.701 115.495 L 71.736 115.62 L 71.86 115.588 C 72.024 115.492 72.208 115.119 72.208 114.741 L 72.208 111.409 C 72.208 111.306 72.292 111.222 72.395 111.222 C 72.499 111.222 72.583 111.306 72.583 111.409 L 72.583 114.741 C 72.583 115.229 72.353 115.733 72.049 115.911 C 71.951 115.97 71.85 115.999 71.755 115.999 Z " fill="rgb(254,254,254)"/><path d=" M 73.301 108.642 C 73.018 108.642 72.7 108.74 72.366 108.932 C 71.243 109.58 70.312 111.091 70.173 112.426 L 74.387 109.993 C 74.366 109.407 74.162 108.975 73.808 108.771 C 73.659 108.684 73.488 108.642 73.301 108.642 Z  M 69.781 113.086 L 69.781 112.761 C 69.781 111.234 70.856 109.37 72.178 108.607 C 72.855 108.218 73.502 108.16 73.996 108.446 C 74.492 108.732 74.764 109.32 74.764 110.1 L 74.764 110.208 L 69.781 113.086 Z " fill="rgb(254,254,254)"/><path d=" M 78.488 112.16 C 78.384 112.16 78.3 112.076 78.3 111.972 L 78.3 105.593 C 78.3 105.489 78.384 105.405 78.488 105.405 C 78.591 105.405 78.675 105.489 78.675 105.593 L 78.675 111.972 C 78.675 112.076 78.591 112.16 78.488 112.16 Z " fill="rgb(254,254,254)"/><path d=" M 77.94 107.048 L 77.866 107.032 C 77.77 106.991 77.727 106.881 77.768 106.785 L 78.435 105.244 L 79.179 106.104 L 79.161 106.368 L 78.896 106.349 L 78.543 105.941 L 78.112 106.935 L 77.94 107.048 Z " fill="rgb(254,254,254)"/><path d=" M 80.222 111.171 C 80.119 111.171 80.035 111.087 80.035 110.984 L 80.035 104.604 C 80.035 104.5 80.119 104.416 80.222 104.416 C 80.326 104.416 80.41 104.5 80.41 104.604 L 80.41 110.984 C 80.41 111.087 80.326 111.171 80.222 111.171 Z " fill="rgb(254,254,254)"/><path d=" M 79.673 106.059 L 79.599 106.043 C 79.504 106.002 79.461 105.892 79.502 105.797 L 80.169 104.256 L 80.913 105.115 L 80.894 105.379 L 80.63 105.36 L 80.276 104.952 L 79.845 105.946 L 79.673 106.059 Z " fill="rgb(254,254,254)"/><path d=" M 59.969 126.642 L 31.535 110.226 L 31.534 53.94 L 59.969 70.357 L 59.969 126.642 Z " fill="rgb(216,217,217)"/><path d=" M 45.027 68.387 L 47.782 69.977 L 47.782 63.319 L 45.027 61.728 L 45.027 68.387 Z " fill="rgb(239,239,239)"/><path d=" M 47.782 63.32 L 76.217 46.903 L 73.46 45.313 L 45.027 61.728 L 47.782 63.32 Z " fill="rgb(254,254,254)"/><path d=" M 37.32 99.496 L 46.042 104.532 C 46.998 105.084 47.774 106.428 47.774 107.532 L 47.774 112.913 C 47.774 114.017 46.999 114.465 46.042 113.913 L 37.319 108.877 C 36.363 108.325 35.588 106.982 35.588 105.877 L 35.588 100.496 C 35.588 99.391 36.363 98.944 37.32 99.496 Z " fill="rgb(239,239,239)"/><path d=" M 36.644 100.841 L 36.976 101.033 L 36.976 107.009 L 36.644 106.818 L 36.644 100.841 Z " fill="rgb(216,217,217)"/><path d=" M 37.993 101.62 L 38.565 101.956 L 38.565 107.932 L 37.993 107.596 L 37.993 101.62 Z " fill="rgb(216,217,217)"/><path d=" M 39.342 102.398 L 39.674 102.59 L 39.673 108.566 L 39.342 108.375 L 39.342 102.398 Z " fill="rgb(216,217,217)"/><path d=" M 40.359 102.975 L 41.023 103.368 L 41.023 109.345 L 40.359 108.951 L 40.359 102.975 Z " fill="rgb(216,217,217)"/><path d=" M 42.041 103.955 L 42.372 104.147 L 42.372 110.123 L 42.041 109.932 L 42.041 103.955 Z " fill="rgb(216,217,217)"/><path d=" M 43.012 104.504 L 43.721 104.926 L 43.721 110.902 L 43.012 110.48 L 43.012 104.504 Z " fill="rgb(216,217,217)"/><path d=" M 44.739 105.513 L 45.07 105.704 L 45.07 111.68 L 44.739 111.489 L 44.739 105.513 Z " fill="rgb(216,217,217)"/><path d=" M 45.508 105.95 L 45.674 106.046 L 45.674 112.023 L 45.508 111.927 L 45.508 105.95 Z " fill="rgb(216,217,217)"/><path d=" M 44.124 105.187 L 44.29 105.283 L 44.289 111.259 L 44.124 111.163 L 44.124 105.187 Z " fill="rgb(216,217,217)"/><path d=" M 41.406 103.595 L 41.572 103.691 L 41.572 109.667 L 41.406 109.572 L 41.406 103.595 Z " fill="rgb(216,217,217)"/><path d=" M 39.918 102.741 L 40.084 102.837 L 40.084 108.813 L 39.918 108.718 L 39.918 102.741 Z " fill="rgb(216,217,217)"/><path d=" M 38.849 102.151 L 39.015 102.246 L 39.014 108.223 L 38.849 108.127 L 38.849 102.151 Z " fill="rgb(216,217,217)"/><path d=" M 37.4 101.271 L 37.565 101.367 L 37.565 107.343 L 37.4 107.247 L 37.4 101.271 Z " fill="rgb(216,217,217)"/><path d=" M 46.088 106.291 L 46.419 106.482 L 46.419 112.459 L 46.088 112.267 L 46.088 106.291 Z " fill="rgb(216,217,217)"/><path d=" M 31.803 208.881 L 140.939 271.886 C 143.33 273.266 147.208 273.266 149.599 271.886 L 388.729 133.835 C 391.121 132.455 391.121 130.216 388.729 128.835 L 279.592 65.829 C 277.201 64.448 273.324 64.448 270.932 65.829 L 31.803 203.881 C 29.412 205.261 29.412 207.5 31.803 208.881 Z " fill="rgb(66,95,104)"/><path d=" M 90.788 238.149 C 94.11 240.068 99.495 240.068 102.817 238.149 C 106.139 236.232 106.139 233.124 102.817 231.206 C 99.495 229.287 94.11 229.287 90.788 231.206 C 87.466 233.124 87.466 236.233 90.788 238.149 Z " fill="rgb(44,60,66)"/><path d=" M 142.939 271.886 L 33.803 208.881 C 31.665 207.645 31.444 205.727 33.13 204.347 C 31.061 205.918 29.473 208.886 29.473 211.381 L 29.473 215.452 C 29.473 218.214 31.412 221.57 33.803 222.952 L 142.939 285.957 C 144.134 286.647 145.702 286.993 147.269 286.993 L 147.269 272.922 C 145.702 272.922 144.134 272.576 142.939 271.886 Z " fill="rgb(56,78,85)"/><path d=" M 388.728 147.905 C 391.12 146.525 393.058 143.167 393.058 140.407 L 393.058 136.334 C 393.058 133.838 391.468 130.868 389.397 129.299 C 391.088 130.679 390.87 132.6 388.729 133.835 L 149.599 271.886 C 148.403 272.576 146.836 272.922 145.269 272.922 L 145.269 286.993 C 146.836 286.993 148.403 286.647 149.599 285.957 L 388.728 147.905 Z " fill="rgb(44,60,66)"/><path d=" M 158.923 258.83 L 54.46 198.489 C 53.025 197.66 53.025 196.317 54.46 195.489 L 256.383 78.884 C 257.819 78.055 260.145 78.055 261.58 78.883 L 366.08 139.214 C 367.514 140.043 367.514 141.386 366.08 142.214 L 164.119 258.83 C 162.684 259.659 160.357 259.659 158.923 258.83 Z " fill="rgb(254,254,254)"/><path d=" M 116.838 225.141 L 129.024 218.105 L 124.962 215.761 L 112.776 222.796 L 116.838 225.141 Z " fill="rgb(0,180,166)"/><path d=" M 263.073 140.714 L 275.258 133.678 L 271.197 131.333 L 259.01 138.368 L 263.073 140.714 Z " fill="rgb(0,180,166)"/><path d=" M 287.445 126.643 L 299.631 119.607 L 295.569 117.262 L 283.383 124.297 L 287.445 126.643 Z " fill="rgb(0,180,166)"/><path d=" M 326.563 101.99 C 327.404 102.476 328.767 102.475 329.609 101.99 C 330.451 101.505 330.451 100.717 329.609 100.231 C 328.767 99.746 327.404 99.746 326.563 100.231 C 325.721 100.717 325.721 101.505 326.563 101.99 Z " fill="rgb(44,60,66)"/><path d=" M 331.431 115.804 C 333.113 116.776 335.841 116.776 337.524 115.804 C 339.207 114.833 339.207 113.258 337.524 112.287 C 335.841 111.315 333.113 111.315 331.431 112.287 C 329.749 113.258 329.749 114.833 331.431 115.804 Z " fill="rgb(44,60,66)"/><path d=" M 327.134 109.682 C 328.257 109.034 328.197 107.951 327.001 107.26 L 306.959 95.689 C 305.764 94.999 303.884 94.963 302.763 95.611 C 301.642 96.259 301.701 97.343 302.896 98.034 L 322.94 109.605 C 324.134 110.296 326.014 110.33 327.134 109.682 Z " fill="rgb(44,60,66)"/><path d=" M 300.921 70.956 C 300.921 65.926 304.453 63.887 308.809 66.402 C 308.456 69.63 314.351 79.695 316.696 80.063 C 316.696 85.093 313.165 87.132 308.808 84.617 C 304.453 82.102 300.921 75.986 300.921 70.956 Z  M 293.034 62.759 L 293.709 62.368 C 293.272 63.897 293.034 65.648 293.034 67.604 L 293.034 70.045 C 293.034 78.8 303.546 101.18 307.408 109.105 C 307.811 109.934 302.499 115.582 302.499 115.582 L 308.808 111.939 C 308.808 111.939 324.584 98.984 324.584 88.26 L 324.584 85.819 C 324.584 75.096 317.521 62.325 308.809 57.295 C 304.417 54.759 300.445 54.678 297.586 56.592 L 297.584 56.59 L 291.591 60.032 L 293.034 62.759 Z " fill="rgb(0,180,166)"/><path d=" M 294.405 74.73 C 294.323 69.701 297.82 67.605 302.216 70.048 C 306.613 72.491 310.245 78.548 310.328 83.577 C 310.41 88.606 306.913 90.703 302.516 88.26 C 298.119 85.817 294.488 79.76 294.405 74.73 Z  M 286.503 73.95 C 286.68 84.672 302.965 115.579 302.965 115.579 C 302.965 115.579 318.525 102.366 318.348 91.643 L 318.308 89.202 C 318.131 78.48 310.86 65.827 302.067 60.941 C 293.273 56.055 286.288 60.787 286.463 71.509 L 286.503 73.95 Z " fill="rgb(0,180,166)"/><path d=" M 302.965 115.579 C 302.965 115.579 302.928 115.509 302.858 115.375 C 302.841 115.34 302.82 115.302 302.798 115.26 C 301.08 111.964 286.67 84.032 286.503 73.95 L 286.463 71.509 C 286.461 71.371 286.46 71.234 286.46 71.098 C 286.466 63.493 290.144 59.015 295.5 59.015 C 297.491 59.015 299.715 59.635 302.067 60.941 C 310.86 65.827 318.131 78.48 318.308 89.202 L 318.348 91.643 C 318.349 91.706 318.35 91.769 318.35 91.832 C 318.343 102.52 302.965 115.579 302.965 115.579 Z  M 294.403 74.563 C 294.403 74.618 294.404 74.674 294.405 74.73 C 294.488 79.76 298.119 85.817 302.516 88.26 C 303.762 88.952 304.935 89.28 305.975 89.28 C 308.565 89.28 310.331 87.247 310.329 83.745 C 310.329 83.689 310.329 83.633 310.328 83.577 C 310.245 78.548 306.613 72.491 302.216 70.048 C 301.813 69.824 301.418 69.638 301.032 69.489 C 300.226 69.178 299.461 69.028 298.757 69.028 C 296.167 69.028 294.402 71.061 294.403 74.563 Z " fill="rgb(0,177,160)"/><path d=" M 134.002 216.922 C 144.109 222.743 167.811 218.509 186.943 207.464 L 239.481 177.131 C 258.613 166.086 265.911 152.423 255.78 146.613 C 245.65 140.805 221.928 145.05 202.797 156.095 L 150.343 186.38 C 131.212 197.426 123.896 211.099 134.002 216.922 Z " fill="rgb(233,234,233)"/><path d=" M 141.211 211.07 L 153.397 204.034 L 149.335 201.689 L 137.148 208.724 L 141.211 211.07 Z " fill="rgb(0,180,166)"/><path d=" M 165.583 196.999 L 177.769 189.963 L 173.707 187.618 L 161.521 194.653 L 165.583 196.999 Z " fill="rgb(0,180,166)"/><path d=" M 160.577 194.158 C 160.577 200.038 156.458 207.188 151.367 210.118 C 148.657 211.688 146.217 211.738 144.538 210.558 L 144.527 210.549 C 143.297 209.688 142.467 208.179 142.217 206.118 C 142.557 205.969 142.898 205.788 143.247 205.589 C 148.337 202.658 152.458 195.509 152.458 189.628 C 152.458 189.168 152.438 188.728 152.378 188.318 C 154.297 187.448 156.038 187.368 157.418 187.958 C 159.357 188.788 160.577 190.958 160.577 194.158 Z " fill="rgb(44,60,66)"/><path d=" M 151.367 210.118 C 148.648 211.688 146.208 211.738 144.527 210.549 C 143.047 209.518 142.148 207.538 142.148 204.799 C 142.148 198.928 146.277 191.778 151.367 188.839 C 153.688 187.498 155.797 187.268 157.418 187.958 C 159.357 188.788 160.577 190.958 160.577 194.158 C 160.577 200.038 156.458 207.188 151.367 210.118 Z  M 161.407 182.058 L 161.237 181.958 C 158.677 180.598 155.197 180.848 151.367 183.068 C 143.518 187.598 137.148 198.618 137.148 207.688 C 137.148 212.248 138.757 215.438 141.357 216.918 C 143.927 218.378 147.467 218.148 151.367 215.898 C 159.217 211.368 165.577 200.339 165.577 191.268 C 165.577 186.728 163.987 183.538 161.407 182.058 Z " fill="rgb(56,78,85)"/><path d=" M 151.367 208.03 C 149.18 209.293 147.218 209.333 145.868 208.376 C 144.678 207.548 143.954 205.956 143.954 203.753 C 143.954 199.034 147.274 193.286 151.367 190.923 C 153.232 189.846 154.928 189.66 156.23 190.215 C 157.79 190.883 158.771 192.627 158.771 195.199 C 158.771 199.927 155.459 205.675 151.367 208.03 Z  M 157.874 188.183 L 157.764 188.119 C 156.105 187.237 153.848 187.399 151.366 188.839 C 146.277 191.775 142.148 198.919 142.148 204.799 C 142.148 207.755 143.191 209.822 144.877 210.782 C 146.543 211.728 148.837 211.579 151.366 210.121 C 156.455 207.184 160.577 200.034 160.577 194.154 C 160.577 191.211 159.546 189.143 157.874 188.183 Z " fill="rgb(0,180,166)"/><path d=" M 189.955 182.928 L 202.141 175.891 L 198.08 173.547 L 185.893 180.582 L 189.955 182.928 Z " fill="rgb(0,180,166)"/><path d=" M 214.328 168.856 L 226.513 161.82 L 222.452 159.475 L 210.266 166.511 L 214.328 168.856 Z " fill="rgb(0,180,166)"/><path d=" M 238.7 154.785 L 250.886 147.749 L 246.825 145.405 L 234.638 152.439 L 238.7 154.785 Z " fill="rgb(0,180,166)"/><path d=" M 178.056 89.355 C 178.857 88.668 179.663 88.952 179.857 89.989 C 180.051 91.025 179.56 92.422 178.76 93.108 C 177.96 93.794 177.153 93.511 176.959 92.474 C 176.764 91.438 177.256 90.041 178.056 89.355 Z " fill="rgb(0,180,166)"/><path d=" M 187.436 93.774 L 179.281 89.067 L 177.497 93.374 L 185.67 98.092 L 187.436 93.774 Z " fill="rgb(0,180,166)"/><path d=" M 186.18 94.046 C 186.981 93.359 187.787 93.643 187.981 94.679 C 188.175 95.716 187.684 97.112 186.884 97.799 C 186.084 98.485 185.277 98.202 185.083 97.165 C 184.889 96.129 185.38 94.732 186.18 94.046 Z " fill="rgb(0,180,166)"/><path d=" M 248.823 133.483 C 248.833 133.683 248.853 133.863 248.853 134.063 C 248.853 134.463 248.842 134.873 248.813 135.283 C 247.193 134.593 245.083 134.823 242.763 136.163 C 237.673 139.103 233.542 146.253 233.542 152.123 C 233.542 154.863 234.443 156.844 235.923 157.873 C 235.503 158.173 235.073 158.443 234.632 158.693 C 234.473 158.783 234.323 158.853 234.163 158.933 L 232.752 164.243 L 224.592 159.693 C 222.013 158.203 220.423 155.023 220.423 150.483 C 220.423 141.413 226.783 130.393 234.632 125.853 C 238.513 123.613 242.023 123.383 244.592 124.813 L 244.592 124.803 L 252.632 129.283 L 252.803 129.383 L 248.823 133.483 Z " fill="rgb(66,95,104)"/><path d=" M 242.763 157.443 C 240.042 159.013 237.603 159.063 235.923 157.873 C 234.443 156.844 233.542 154.863 233.542 152.123 C 233.542 146.253 237.673 139.103 242.763 136.163 C 245.083 134.823 247.193 134.593 248.813 135.283 C 250.753 136.113 251.973 138.283 251.973 141.483 C 251.973 147.363 247.853 154.514 242.763 157.443 Z  M 252.803 129.383 L 252.632 129.283 C 250.073 127.923 246.592 128.173 242.763 130.393 C 234.913 134.923 228.543 145.943 228.543 155.013 C 228.543 159.573 230.153 162.764 232.752 164.243 C 235.323 165.703 238.863 165.473 242.763 163.223 C 250.613 158.693 256.973 147.663 256.973 138.593 C 256.973 134.053 255.382 130.863 252.803 129.383 Z " fill="rgb(56,78,85)"/><path d=" M 251.973 141.483 C 251.973 147.363 247.853 154.513 242.763 157.443 C 240.053 159.013 237.613 159.063 235.933 157.883 L 235.923 157.873 C 234.693 157.013 233.863 155.503 233.613 153.443 C 233.953 153.293 234.293 153.113 234.643 152.913 C 239.733 149.983 243.853 142.833 243.853 136.953 C 243.853 136.493 243.833 136.053 243.773 135.643 C 245.693 134.773 247.433 134.693 248.813 135.283 C 250.753 136.113 251.973 138.283 251.973 141.483 Z " fill="rgb(44,60,66)"/><path d=" M 242.762 155.358 C 240.576 156.62 238.614 156.66 237.263 155.704 C 236.074 154.876 235.35 153.284 235.35 151.081 C 235.35 146.362 238.669 140.614 242.762 138.25 C 244.628 137.173 246.324 136.988 247.626 137.543 C 249.185 138.21 250.167 139.954 250.167 142.527 C 250.167 147.254 246.854 153.003 242.762 155.358 Z  M 249.27 135.512 L 249.16 135.447 C 247.5 134.565 245.244 134.727 242.761 136.166 C 237.672 139.103 233.542 146.247 233.542 152.126 C 233.542 155.082 234.587 157.15 236.272 158.109 C 237.938 159.056 240.233 158.907 242.761 157.448 C 247.85 154.512 251.973 147.361 251.973 141.482 C 251.973 138.539 250.942 136.471 249.27 135.512 Z " fill="rgb(0,180,166)"/><path d=" M 234.635 144.471 C 234.635 144.471 254.964 132.735 257.639 131.19 C 260.315 129.646 251.588 120.589 245.189 119.987 C 238.791 119.386 234.635 121.019 234.635 121.019 C 234.635 121.019 239.543 127.312 238.698 130.881 C 237.853 134.45 234.635 144.471 234.635 144.471 Z " fill="rgb(0,180,166)"/><path d=" M 202.14 106.947 C 202.14 106.947 235.478 123.761 236.919 124.77 C 238.36 125.779 236.963 137.515 234.635 144.471 C 232.308 151.428 228.821 162.114 227.415 165.164 C 226.008 168.214 224.162 169.28 220.783 171.231 C 217.403 173.182 196.767 185.106 196.767 185.106 L 164.294 189.031 L 151.397 181.995 L 154.75 160.887 C 154.75 160.887 189.279 142.514 194.015 139.781 C 198.75 137.047 212.732 124.284 202.14 106.947 Z " fill="rgb(0,180,166)"/><path d=" M 164.294 189.031 L 157.982 185.587 L 161.407 182.058 L 161.237 181.958 L 155.775 178.915 C 160.916 179.351 165.867 179.484 168.259 179.649 C 170.89 179.831 173.248 179.935 175.26 179.935 C 178.01 179.935 180.113 179.74 181.387 179.283 C 184.237 178.26 191.897 173.837 194.015 172.614 C 198.078 170.268 199.805 161.062 188.611 158.543 C 187.949 158.394 187.284 158.254 186.619 158.123 L 199.975 150.412 C 201.17 149.722 202.139 148.112 202.139 146.816 L 202.139 146.816 L 202.139 146.816 C 202.139 145.521 201.17 143.912 199.974 143.222 L 198.386 142.305 C 200.397 141.411 201.684 140.819 201.684 140.819 C 201.684 140.819 210.748 137.494 210.789 135.124 C 210.843 131.939 210.649 127.576 204.627 126.986 C 205.48 124.746 206.013 122.268 206.013 119.586 C 206.013 115.756 204.927 111.51 202.14 106.947 C 202.14 106.947 203.833 107.801 206.473 109.136 L 206.201 109.293 L 206.201 109.293 C 206.201 109.293 231.562 123.993 234.44 125.597 C 235.48 126.176 236.561 127.957 236.562 132.096 C 236.563 134.962 236.045 138.96 234.635 144.471 L 234.635 144.471 L 234.635 144.471 C 233.076 149.134 230.995 155.471 229.369 160.062 C 229.128 160.741 228.898 161.381 228.681 161.973 C 228.174 163.35 227.739 164.46 227.415 165.164 C 226.008 168.214 224.162 169.28 220.783 171.231 C 217.403 173.182 196.767 185.106 196.767 185.106 L 174.101 187.846 L 173.104 187.966 L 164.294 189.031 Z  M 174.259 156.517 C 173.92 156.492 173.588 156.47 173.263 156.448 L 173.701 156.195 L 174.259 156.517 Z " fill="rgb(0,174,153)"/><path d=" M 237.559 140.467 C 240.54 132.403 242.803 125.72 242.418 121.217 C 241.96 115.867 239.966 111.491 231.14 109.293 C 222.313 107.095 209.958 107.124 209.958 107.124 L 206.201 109.293 C 206.201 109.293 231.562 123.993 234.44 125.597 C 236.2 126.577 238.08 131.001 234.635 144.471 C 234.635 144.471 234.9 144.624 235.226 144.812 C 235.552 145.001 236.602 143.057 237.559 140.467 Z " fill="rgb(0,180,166)"/><path d=" M 235.274 144.825 C 235.257 144.825 235.241 144.821 235.226 144.812 C 234.9 144.624 234.635 144.471 234.635 144.471 C 236.045 138.96 236.563 134.962 236.562 132.096 C 236.561 127.957 235.48 126.176 234.44 125.597 C 231.562 123.993 206.201 109.293 206.201 109.293 L 209.958 107.124 C 209.958 107.124 209.966 107.124 209.982 107.124 C 210.598 107.124 222.543 107.152 231.14 109.293 C 239.966 111.491 241.96 115.867 242.418 121.217 C 242.446 121.551 242.46 121.897 242.46 122.255 C 242.463 126.72 240.318 133.001 237.559 140.467 C 237.106 141.694 236.632 142.776 236.224 143.554 C 235.841 144.285 235.516 144.749 235.321 144.816 C 235.304 144.822 235.289 144.825 235.274 144.825 Z " fill="rgb(56,189,181)"/><path d=" M 218.351 116.328 L 222.45 113.983 C 222.45 113.983 222.21 99.774 216.236 96.325 C 210.263 92.876 189.953 95.221 189.953 95.221 L 185.891 97.567 L 218.351 116.328 Z " fill="rgb(0,180,166)"/><path d=" M 205.053 99.574 C 203.105 100.699 203.105 102.522 205.053 103.647 C 207.002 104.772 210.16 104.772 212.108 103.647 C 214.056 102.522 214.056 100.699 212.108 99.574 C 210.16 98.449 207.002 98.449 205.053 99.574 Z " fill="rgb(233,234,233)"/><path d=" M 211.297 106.365 C 209.919 107.16 209.919 108.45 211.296 109.244 C 212.674 110.04 214.907 110.04 216.284 109.244 C 217.662 108.449 217.662 107.16 216.284 106.365 C 214.907 105.57 212.674 105.57 211.297 106.365 Z " fill="rgb(233,234,233)"/><path d=" M 195.584 97.759 C 194.206 98.554 194.206 99.844 195.583 100.638 C 196.961 101.434 199.193 101.434 200.571 100.638 C 201.948 99.843 201.948 98.554 200.571 97.759 C 199.194 96.964 196.961 96.964 195.584 97.759 Z " fill="rgb(233,234,233)"/><path d=" M 218.939 112.201 C 219.74 111.514 220.545 111.799 220.74 112.835 C 220.934 113.871 220.443 115.268 219.643 115.954 C 218.842 116.64 218.036 116.357 217.842 115.321 C 217.648 114.284 218.139 112.888 218.939 112.201 Z " fill="rgb(0,180,166)"/><path d=" M 228.319 116.62 L 220.164 111.913 L 218.379 116.22 L 226.553 120.938 L 228.319 116.62 Z " fill="rgb(0,180,166)"/><path d=" M 227.063 116.892 C 227.864 116.205 228.669 116.489 228.864 117.525 C 229.058 118.562 228.567 119.958 227.767 120.645 C 226.966 121.331 226.161 121.048 225.966 120.011 C 225.771 118.975 226.263 117.578 227.063 116.892 Z " fill="rgb(0,180,166)"/><path d=" M 227.063 116.892 C 227.864 116.205 228.669 116.489 228.864 117.525 C 229.058 118.562 228.567 119.958 227.767 120.645 C 226.966 121.331 226.161 121.048 225.966 120.011 C 225.771 118.975 226.263 117.578 227.063 116.892 Z " fill="rgb(33,33,36)"/><path d=" M 157.427 186.158 C 157.438 186.358 157.458 186.538 157.458 186.738 C 157.458 187.138 157.447 187.549 157.418 187.958 C 155.797 187.268 153.688 187.498 151.367 188.839 C 146.277 191.778 142.148 198.928 142.148 204.799 C 142.148 207.538 143.047 209.518 144.527 210.549 C 144.107 210.848 143.677 211.118 143.237 211.368 C 143.077 211.458 142.927 211.528 142.768 211.608 L 141.357 216.918 L 133.197 212.368 C 130.617 210.878 129.027 207.698 129.027 203.158 C 129.027 194.089 135.388 183.068 143.237 178.528 C 147.117 176.288 150.627 176.058 153.197 177.488 L 153.197 177.478 L 161.237 181.958 L 161.407 182.058 L 157.427 186.158 Z " fill="rgb(66,95,104)"/><path d=" M 133.085 170.268 L 126.992 191.376 L 139.177 198.412 L 145.494 177.432 L 133.085 170.268 Z " fill="rgb(0,180,166)"/><path d=" M 139.177 198.412 L 126.992 191.376 L 133.084 170.272 L 133.101 170.282 C 133.47 170.591 140.152 176.141 145.494 177.432 L 139.177 198.412 Z " fill="rgb(0,174,153)"/><path d=" M 133.085 170.268 C 133.085 170.268 139.998 176.103 145.494 177.432 C 152.711 179.18 164.189 179.369 168.259 179.649 C 174.486 180.079 179.182 180.075 181.387 179.283 C 184.237 178.26 191.897 173.837 194.015 172.614 C 198.078 170.268 199.805 161.062 188.611 158.543 C 177.417 156.022 165.582 156.198 165.582 156.198 L 133.085 170.268 Z " fill="rgb(0,180,166)"/><path d=" M 201.959 167.561 C 201.641 167.982 201.584 168.955 201.261 170.27 C 200.94 171.587 200.831 172.606 201.046 173.25 C 201.261 173.894 202.676 175.344 204.411 175.88 C 206.146 176.417 208.279 175.967 210.344 174.732 C 212.41 173.497 213.968 171.996 216.91 171.158 C 219.852 170.321 221.324 169.641 222.716 168.523 C 224.347 167.214 226.526 163.595 223.406 162.757 C 220.26 161.913 213.498 164.878 207.326 165.145 L 201.959 167.561 Z " fill="rgb(56,78,85)"/><path d=" M 201.959 163.702 L 201.959 168.326 C 201.959 168.326 202.385 169.924 204.416 170.271 C 204.923 170.357 205.428 170.279 205.898 170.113 C 207.437 169.571 208.44 168.081 208.546 166.453 L 208.727 163.702 L 201.959 163.702 Z " fill="rgb(245,159,162)"/><path d=" M 210.789 135.124 C 210.822 140.876 209.173 165.728 209.173 165.728 C 209.173 165.728 206.821 168.705 201.712 165.728 L 199.978 137.968 L 210.789 135.124 Z " fill="rgb(56,78,85)"/><path d=" M 183.994 159.638 L 199.975 150.412 C 201.17 149.722 202.139 148.112 202.139 146.816 C 202.139 145.521 201.17 143.912 199.974 143.222 L 188.056 136.341 C 186.86 135.65 184.922 135.65 183.726 136.341 L 167.743 145.568 C 166.547 146.259 165.578 147.868 165.58 149.163 C 165.581 150.458 166.551 152.067 167.747 152.757 L 179.664 159.638 C 180.86 160.328 182.798 160.328 183.994 159.638 Z " fill="rgb(0,180,166)"/><path d=" M 183.994 159.638 L 199.975 150.412 C 201.17 149.722 202.139 148.112 202.139 146.816 C 202.139 145.521 201.17 143.912 199.974 143.222 L 188.056 136.341 C 186.86 135.65 184.922 135.65 183.726 136.341 L 167.743 145.568 C 166.547 146.259 165.578 147.868 165.58 149.163 C 165.581 150.458 166.551 152.067 167.747 152.757 L 179.664 159.638 C 180.86 160.328 182.798 160.328 183.994 159.638 Z " fill="rgb(254,254,254)"/><path d=" M 167.743 148.068 L 179.664 154.948 C 180.86 155.638 182.798 155.638 183.994 154.947 L 199.974 145.721 C 201.17 145.031 201.17 143.912 199.974 143.222 L 188.056 136.341 C 186.86 135.65 184.922 135.65 183.726 136.341 L 167.743 145.568 C 166.547 146.259 166.547 147.378 167.743 148.068 Z " fill="rgb(0,180,166)"/><path d=" M 177.489 86.867 L 175.463 95.233 L 166.745 95.762 L 168.628 84.166 L 177.489 86.867 Z " fill="rgb(245,159,162)"/><path d=" M 185.944 80.559 C 185.944 80.559 186.892 84.107 186.533 84.302 C 186.173 84.497 184.632 84.31 184.632 84.31 L 185.944 80.559 Z " fill="rgb(243,141,142)"/><path d=" M 184.319 69.265 C 185.727 70.916 187.002 73.622 186.015 80.247 C 184.933 87.507 183.591 88.343 182.509 89.048 C 181.108 89.962 175.461 89.477 173.871 88.316 C 171.961 86.921 169.011 82.515 168.311 78.166 C 167.489 73.049 169.205 67.379 172.963 66.418 C 178.252 65.064 183.128 67.867 184.319 69.265 Z " fill="rgb(245,159,162)"/><path d=" M 167.745 86.513 C 169.089 87.913 171.861 88.297 173.607 88.61 C 175.351 88.923 180.692 89.28 182.274 85.474 C 183.857 81.669 182.771 78.923 184.715 78.004 C 186.66 77.084 188.595 76.481 189.102 75.966 C 189.609 75.452 189.624 69.218 184.414 66.01 C 179.204 62.802 171.224 61.974 165.975 68.607 C 161.953 73.688 163.622 82.218 167.745 86.513 Z " fill="rgb(66,95,104)"/><path d=" M 172.976 88.669 C 174.322 88.782 178.595 88.109 179.88 86.353 C 181.165 84.597 181.689 81.448 181.84 79.791 C 181.992 78.135 182.876 77.471 184.157 77.062 C 185.438 76.653 188.294 75.254 188.294 75.254 L 188.31 74.476 C 188.31 74.476 190.465 74.354 191.069 74.462 C 191.673 74.57 191.344 75.456 189.824 76.239 C 188.303 77.022 184.136 78.497 183.491 79.006 C 182.846 79.515 182.554 81.668 182.044 83.956 C 181.535 86.243 180.033 89.675 172.976 88.669 Z " fill="rgb(56,78,85)"/><path d=" M 184.981 98.093 L 189.953 95.221 C 190.429 93.771 189.666 93.045 188.298 93.135 C 186.93 93.224 187.359 91.905 186.532 91.53 C 185.44 91.034 184.823 91.313 184.337 91.086 C 183.721 90.796 183.637 90.269 182.995 90.208 C 180.137 89.932 178.184 94.012 178.184 94.012 L 184.981 98.093 Z " fill="rgb(243,141,142)"/><path d=" M 151.048 134.852 C 151.048 134.852 173.138 123.9 176.997 122.11 C 180.857 120.32 186.887 117.772 190.095 117.775 C 192.427 117.776 194.765 120.068 194.881 122.675 C 194.999 125.283 194.55 128.447 194.55 128.447 C 194.55 128.447 185.24 131.621 176.024 133.177 C 166.807 134.732 151.048 134.852 151.048 134.852 Z " fill="rgb(56,78,85)"/><path d=" M 153.452 128.528 C 153.461 133.062 153.026 137.78 154.917 141.102 C 156.744 144.314 167.038 152.117 176.684 150.493 C 182.985 149.432 201.684 140.819 201.684 140.819 C 201.684 140.819 210.748 137.494 210.789 135.124 C 210.849 131.63 210.609 126.716 202.7 126.926 C 195.495 127.117 174.226 131.554 174.226 131.554 L 153.452 128.528 Z " fill="rgb(66,95,104)"/><path d=" M 159.627 92.556 C 163.045 88.98 165.354 88.685 166.993 89.119 C 172.703 90.629 176.728 93.013 177.883 93.483 C 177.883 93.483 176.564 106.263 182.809 109.948 L 182.809 129.859 C 182.809 129.859 182.624 132.023 179.9 134.171 C 177.499 136.063 172.074 137.973 165.588 137.435 C 157.89 136.797 153.452 128.528 153.452 128.528 C 153.452 128.528 153.252 112.238 154.345 105.768 C 155.621 98.216 158.445 93.794 159.627 92.556 Z " fill="rgb(66,95,104)"/><path d=" M 182.809 110.91 C 182.809 110.91 179.031 107.943 177.883 104.013 C 177.883 104.013 178.334 110.133 182.809 113.238 L 182.809 110.91 Z " fill="rgb(56,78,85)"/><path d=" M 217.799 120.311 C 219.275 120.507 221.634 119.731 222.794 118.768 C 222.794 118.768 224.536 115.385 226.671 115.67 C 226.671 115.67 227.053 114.237 226.169 113.76 C 225.284 113.282 224.912 113.419 224.555 112.928 C 224.2 112.436 224.151 111.491 222.589 111.491 C 221.928 111.491 222.025 111.018 220.423 110.83 C 218.821 110.642 217.238 114.335 216.07 114.335 L 217.799 120.311 Z " fill="rgb(245,159,162)"/><path d=" M 177.883 93.483 C 183.372 94.331 185.361 95.959 187.361 97.816 C 189.448 99.752 201.604 111.947 201.604 111.947 L 216.42 114.078 C 216.42 114.078 217.462 114.78 218.061 116.517 C 218.66 118.254 218.121 120.15 217.552 120.607 C 217.552 120.607 202.855 121.48 199.966 120.938 C 197.077 120.395 182.762 110.879 182.762 110.879 C 182.762 110.879 178.701 108.293 177.767 102.257 C 176.833 96.221 177.883 93.483 177.883 93.483 Z " fill="rgb(66,95,104)"/><path d=" M 164.708 146.308 L 141.967 174.028 C 141.717 174.058 141.467 174.078 141.208 174.078 C 140.268 174.078 139.337 173.868 138.617 173.469 L 119.438 162.388 C 119.438 162.388 118.855 162.053 118.138 161.638 C 117.419 161.223 116.838 159.545 116.838 157.888 L 116.838 153.219 C 116.838 143.448 122.047 134.428 130.497 129.548 L 153.397 116.328 L 177.768 130.398 L 164.708 146.308 Z " fill="rgb(0,180,166)"/><clipPath id="_clipPath_V4n46vrfUC6PsOc7rOjTbze3a9UlUw6h"><path d=" M 141.208 174.078 C 140.268 174.078 139.337 173.868 138.617 173.469 L 133.101 170.282 L 119.438 162.388 C 119.438 162.388 118.855 162.053 118.138 161.638 C 117.419 161.223 116.838 159.545 116.838 157.888 L 116.838 153.219 C 116.838 143.448 122.047 134.428 130.497 129.548 L 136.363 126.162 L 130.502 129.546 C 127.491 131.284 124.901 133.554 122.802 136.189 L 147.164 150.254 C 143.367 155.018 141.208 160.998 141.208 167.288 L 141.208 174.078 L 141.208 174.078 Z " fill="rgb(255,255,255)"/></clipPath><g clip-path="url(#_clipPath_V4n46vrfUC6PsOc7rOjTbze3a9UlUw6h)"><path d=" M 116.838 126.162 L 147.164 126.162 L 147.164 174.078 L 116.838 174.078 L 116.838 126.162 Z " fill="rgb(0,177,160)"/></g><path d=" M 177.766 130.399 L 153.396 116.329 L 153.397 116.328 L 177.768 130.398 L 177.766 130.399 Z " fill="rgb(0,177,160)"/><path d=" M 156.876 155.862 L 177.767 130.4 L 153.395 116.329 L 130.502 129.546 C 127.491 131.284 124.901 133.554 122.802 136.189 L 156.876 155.862 Z " fill="rgb(0,180,166)"/><path d=" M 177.768 150.848 C 177.768 152.505 177.186 154.184 176.467 154.598 L 175.168 155.348 L 143.807 173.458 C 143.268 173.759 142.638 173.948 141.967 174.028 C 141.717 174.058 141.467 174.078 141.208 174.078 L 141.208 167.288 C 141.208 157.518 146.418 148.498 154.877 143.618 L 157.467 142.128 L 177.768 130.398 L 177.768 150.848 Z " fill="rgb(0,180,166)"/><path d=" M 141.208 174.078 L 141.208 167.288 C 141.208 157.518 146.418 148.498 154.877 143.618 L 157.467 142.128 L 177.768 130.398 L 177.768 150.267 L 177.768 150.848 C 177.768 151.831 177.563 152.822 177.246 153.552 C 177.029 154.053 176.759 154.43 176.467 154.598 L 175.168 155.348 L 173.701 156.195 L 143.807 173.458 C 143.268 173.759 142.638 173.948 141.967 174.028 C 141.717 174.058 141.467 174.078 141.208 174.078 Z " fill="rgb(0,174,153)"/><path d=" M 184.493 185.148 L 196.767 185.106 L 214.326 174.96 L 197.12 187.399 L 184.171 187.578 L 184.493 185.148 Z " fill="rgb(216,217,217)"/><path d=" M 154.702 202.601 C 154.702 202.601 176.822 194.262 178.681 193.282 C 181.083 192.015 184.941 188.716 184.941 188.716 C 185.725 188.003 185.692 185.925 184.614 185.145 C 184.614 185.145 175.599 184.735 173.301 185.439 C 172.01 185.834 151.197 192.511 151.197 192.511 L 154.702 202.601 Z " fill="rgb(216,217,217)"/><path d=" M 153.711 193.28 C 151.882 191.711 150.039 192.359 149.595 194.728 C 149.151 197.097 150.273 200.289 152.103 201.858 C 153.932 203.428 155.775 202.779 156.219 200.41 C 156.664 198.042 155.541 194.849 153.711 193.28 Z " fill="rgb(66,95,104)"/></g></g></svg>