<?xml version="1.0" encoding="UTF-8" standalone="no"?><!-- Generator: Gravit.io --><svg xmlns="http://www.w3.org/2000/svg" xmlns:xlink="http://www.w3.org/1999/xlink" style="isolation:isolate" viewBox="0 0 459.501 447.821" width="459.501pt" height="447.821pt"><defs><clipPath id="_clipPath_AFPK2XfqjFHq04oYafj5P2VxwKJUqcZZ"><rect width="459.501" height="447.821"/></clipPath></defs><g clip-path="url(#_clipPath_AFPK2XfqjFHq04oYafj5P2VxwKJUqcZZ)"><clipPath id="_clipPath_CWzxSzlorvjoVY2ACZfZL4cr1zDHKmMx"><path d=" M 0 0 L 0 447.821 L 459.501 447.821 L 459.501 0 L 0 0 Z " fill="rgb(255,255,255)"/></clipPath><g clip-path="url(#_clipPath_CWzxSzlorvjoVY2ACZfZL4cr1zDHKmMx)"><path d=" M 385.065 240.429 C 472.309 287.872 472.309 364.794 385.064 412.238 C 297.819 459.682 156.368 459.682 69.124 412.239 C -18.121 364.795 -18.12 287.873 69.125 240.43 C 156.369 192.986 297.821 192.985 385.065 240.429 Z " fill="rgb(239,238,237)"/><path d=" M 250.899 286.795 C 264.046 294.386 264.046 306.692 250.899 314.282 C 237.752 321.872 216.437 321.872 203.29 314.282 C 190.143 306.692 190.143 294.386 203.29 286.795 C 216.437 279.205 237.752 279.205 250.899 286.795 Z " fill="rgb(216,217,217)"/><path d=" M 390.248 319.481 C 411.028 331.478 411.028 350.93 390.247 362.928 C 369.467 374.926 335.775 374.926 314.994 362.928 C 294.214 350.931 294.214 331.478 314.995 319.481 C 335.775 307.483 369.467 307.483 390.248 319.481 Z " fill="rgb(216,217,217)"/><path d=" M 129.141 322.808 C 149.922 334.806 149.922 354.258 129.141 366.256 C 108.361 378.253 74.669 378.253 53.888 366.256 C 33.108 354.258 33.108 334.806 53.889 322.808 C 74.669 310.811 108.361 310.811 129.141 322.808 Z " fill="rgb(216,217,217)"/><path d=" M 432.062 319.379 L 422.012 315.267 C 422.012 315.267 419.844 300.735 419.839 289.05 C 419.831 272.629 430.059 252.552 443.043 255.911 C 456.026 259.269 439.386 277.636 436.681 291.831 C 433.975 306.026 432.062 319.379 432.062 319.379 Z " fill="rgb(0,179,169)"/><path d=" M 431.99 319.349 L 422.012 315.267 C 422.012 315.267 419.844 300.735 419.839 289.05 C 419.831 273.859 428.585 255.539 440.175 255.539 C 441.114 255.539 442.07 255.659 443.043 255.911 C 446.606 256.833 447.938 258.884 447.939 261.67 C 447.942 266.655 443.682 273.993 440.32 281.408 C 437.042 284.792 434.15 289.433 432.704 294.989 C 431.389 300.041 430.986 304.836 430.986 308.818 C 430.987 314.729 431.876 318.847 431.99 319.349 Z " fill="rgb(0,171,147)"/><path d=" M 427.225 318.143 L 427.24 318.142 C 427.472 318.111 427.636 317.897 427.604 317.665 C 422.811 281.65 439.006 261.697 439.169 261.5 C 439.319 261.32 439.295 261.052 439.115 260.903 C 438.932 260.753 438.665 260.777 438.517 260.957 C 438.35 261.158 421.922 281.397 426.763 317.777 C 426.793 318.005 426.998 318.166 427.225 318.143 Z " fill="rgb(254,254,254)"/><path d=" M 437.25 321.778 L 432.002 319.401 C 432.002 319.401 429.304 308.053 432.704 294.989 C 436.073 282.046 447.29 274.064 452.946 275.385 C 459.851 276.997 460.523 283.388 458.507 287.833 C 456.131 293.073 439.471 307.379 437.25 321.778 Z " fill="rgb(0,179,169)"/><path d=" M 437.25 321.778 L 432.002 319.401 C 432.002 319.401 430.987 315.133 430.986 308.818 C 430.986 304.836 431.389 300.041 432.704 294.989 C 435.83 282.981 445.711 275.242 451.639 275.242 C 452.101 275.242 452.538 275.289 452.946 275.385 C 457.7 276.495 459.5 279.87 459.501 283.315 C 459.502 284.875 459.135 286.448 458.507 287.833 C 456.131 293.073 439.471 307.379 437.25 321.778 Z " fill="rgb(0,177,163)"/><path d=" M 434.523 320.947 L 434.525 320.946 C 434.758 320.922 434.928 320.714 434.903 320.48 C 432.55 297.642 452.477 280.083 452.68 279.908 C 452.856 279.754 452.876 279.486 452.722 279.309 C 452.57 279.133 452.303 279.111 452.123 279.267 C 451.919 279.444 431.66 297.295 434.059 320.568 C 434.083 320.8 434.291 320.97 434.523 320.947 Z " fill="rgb(254,254,254)"/><path d=" M 33.1 310.179 L 39.991 306.242 C 39.991 306.242 43.296 288.025 40.825 272.366 C 37.349 250.351 22.359 242.758 16.915 244.946 C 11.471 247.135 10.191 253.656 20.023 266.377 C 25.825 273.882 33.286 289.747 33.1 310.179 Z " fill="rgb(0,179,169)"/><path d=" M 33.1 310.179 C 33.102 309.92 33.103 309.661 33.103 309.403 C 33.096 289.346 25.751 273.787 20.023 266.377 C 14.81 259.631 12.72 254.629 12.72 251.092 C 12.72 247.958 14.358 245.974 16.915 244.946 C 17.509 244.707 18.216 244.585 19.009 244.585 C 25.491 244.585 37.728 252.753 40.825 272.366 C 41.498 276.633 41.743 281.089 41.742 285.315 C 41.741 296.599 39.991 306.242 39.991 306.242 L 33.1 310.179 Z " fill="rgb(0,176,160)"/><path d=" M 35.598 301.436 L 35.529 301.431 C 35.261 301.393 35.073 301.146 35.11 300.877 C 37.958 280.266 29.67 257.684 20.357 248.584 C 20.163 248.395 20.159 248.083 20.349 247.889 C 20.539 247.697 20.85 247.691 21.044 247.881 C 30.527 257.148 38.973 280.097 36.083 301.012 C 36.05 301.257 35.839 301.436 35.598 301.436 Z " fill="rgb(254,254,254)"/><path d=" M 13.978 321.225 C 12.89 321.85 10.645 320.484 9.785 319.907 C 8.313 318.919 7.121 317.521 6.329 315.939 C 5.407 314.099 5.175 312.126 5.464 310.09 C 5.613 309.035 5.909 308.005 6.203 306.98 C 6.492 305.974 6.782 304.968 7.071 303.961 C 7.357 302.968 7.645 301.941 7.514 300.916 C 7.25 298.851 5.417 297.405 3.751 296.158 C 1.909 294.778 -0.01 292.957 0 290.471 C 0.008 288.553 1.001 286.772 2.19 285.266 C 3.379 283.761 4.789 282.431 5.863 280.842 C 6.637 279.699 7.24 278.355 7.114 276.98 C 7.036 276.126 6.682 275.321 6.273 274.567 C 5.395 272.949 4.237 271.466 3.632 269.727 C 3.026 267.989 3.113 265.826 4.47 264.582 C 5.584 263.56 7.239 263.418 8.747 263.517 C 10.142 263.61 11.505 264.239 12.725 264.918 C 16.671 267.112 18.923 271.786 23.111 273.474 C 24.726 274.126 26.495 274.268 28.18 274.713 C 29.863 275.158 31.579 276.018 32.359 277.575 C 33.897 280.645 31.044 284.43 32.124 287.688 C 33.081 290.573 35.883 291.677 37.457 294.276 C 38.145 295.412 38.304 296.727 38.193 298.051 C 38.005 300.293 37.677 301.938 36.601 304.431 C 35.712 306.492 33.099 310.179 33.099 310.179 C 33.034 310.244 14.145 321.129 13.978 321.225 Z " fill="rgb(0,179,169)"/><path d=" M 25.166 315.264 L 25.152 315.264 C 24.874 315.253 24.664 315.024 24.675 314.753 C 25.486 295.245 16.294 273.707 9.61 267.451 C 9.412 267.265 9.402 266.954 9.587 266.755 C 9.773 266.558 10.083 266.548 10.282 266.732 C 17.1 273.116 26.479 295.011 25.657 314.793 C 25.645 315.058 25.428 315.264 25.166 315.264 Z " fill="rgb(254,254,254)"/><path d=" M 22.243 292.217 L 22.098 292.195 C 15.83 290.257 8.018 289.915 7.94 289.912 C 7.669 289.901 7.459 289.672 7.469 289.401 C 7.481 289.131 7.686 288.916 7.981 288.93 C 8.06 288.934 15.996 289.28 22.388 291.256 C 22.647 291.336 22.792 291.611 22.712 291.87 C 22.647 292.081 22.453 292.217 22.243 292.217 Z " fill="rgb(254,254,254)"/><path d=" M 378.921 334.87 L 369.605 333.799 L 367.19 315.019 L 378.583 318.397 L 378.921 334.87 Z " fill="rgb(195,110,112)"/><path d=" M 358.506 350.189 C 358.22 350.458 358.291 352.013 358.666 352.466 C 359.627 353.628 362.249 354.988 365.768 355.24 C 369.131 355.481 372.134 355.028 374.108 353.774 C 376.082 352.52 377.038 351.138 377.224 349.222 C 377.41 347.307 377.196 345.459 378.109 343.984 C 378.953 342.623 380.297 341.088 380.589 340.35 C 381.225 338.745 380.612 336.449 380.612 336.449 L 358.506 350.189 Z " fill="rgb(44,61,67)"/><path d=" M 367.71 333.466 C 367.686 334.21 367.555 334.888 367.322 335.598 C 366.835 337.084 366.094 338.482 365.263 339.812 C 364.835 340.496 364.382 341.169 363.86 341.79 C 362.844 343 361.58 343.994 360.503 345.155 C 359.427 346.316 358.512 347.724 358.427 349.283 C 358.284 351.92 362.489 352.816 364.692 353.209 C 367.046 353.628 369.557 353.502 371.854 352.849 C 374.41 352.123 376.255 350.143 376.679 347.594 C 376.801 346.862 376.755 346.113 376.842 345.376 C 377.039 343.695 377.91 342.159 378.892 340.761 C 379.464 339.951 380.084 339.159 380.467 338.25 C 381.154 336.617 380.602 334.78 380.163 333.154 C 379.784 331.75 379.321 330.137 378.826 330.269 C 378.821 330.997 378.862 331.096 378.34 331.59 C 377.679 332.215 377.65 333.154 376.952 333.705 C 377.279 332.85 377.3 332.487 377.442 331.829 C 377.484 331.633 377.43 331.234 377.293 331.084 C 377.108 330.881 376.793 330.755 376.483 330.651 C 375.446 330.3 374.371 330.056 373.28 329.922 C 372.285 329.8 369.8 329.678 368.812 329.899 C 368.51 329.967 368.214 330.113 368.027 330.354 C 367.83 330.608 367.794 330.834 367.747 331.255 C 367.699 331.677 367.732 332.765 367.71 333.466 Z " fill="rgb(67,96,105)"/><path d=" M 364.907 340.365 C 365.889 339.629 369.432 339.62 370.636 339.748 C 372.142 339.91 373.363 340.438 374.055 340.949 C 374.363 341.175 374.793 341.136 375.063 340.869 C 375.388 340.548 375.358 340.02 374.988 339.748 C 374.254 339.208 372.926 338.448 371.139 338.322 C 368.179 338.114 365.968 338.621 365.968 338.621 C 365.968 338.621 364.617 339.491 364.907 340.365 Z " fill="rgb(239,238,237)"/><path d=" M 362.648 343.067 C 363.884 342.337 367.646 342.442 368.849 342.572 C 370.356 342.733 371.483 343.326 372.176 343.836 C 372.483 344.063 372.913 344.024 373.183 343.757 C 373.509 343.436 373.478 342.908 373.109 342.636 C 372.375 342.096 369.62 341.222 367.835 341.097 C 364.874 340.888 364.101 341.493 364.101 341.493 C 364.101 341.493 362.853 341.976 362.648 343.067 Z " fill="rgb(239,238,237)"/><path d=" M 372.318 335.488 C 370.272 335.277 368.062 335.506 367.254 335.801 C 366.732 336.093 366.388 336.917 366.724 337.126 C 367.384 336.76 369.913 336.608 371.367 336.673 C 372.343 336.716 373.571 337.111 374.569 337.553 C 374.822 337.665 375.122 337.823 375.385 337.968 C 375.738 338.164 376.188 338.025 376.358 337.665 C 376.503 337.36 376.395 336.996 376.102 336.819 C 375.387 336.386 373.972 335.659 372.318 335.488 Z " fill="rgb(239,238,237)"/><path d=" M 344.172 326.33 L 335.311 323.855 L 335.311 305.949 L 346.303 306.425 L 344.172 326.33 Z " fill="rgb(195,110,112)"/><path d=" M 316.597 335.917 C 316.321 336.495 316.401 337.578 316.729 338.265 C 317.057 338.952 320.645 340.974 325.484 340.648 C 330.323 340.322 333.647 338.372 335.492 337.15 C 337.337 335.929 339.258 335.701 341.654 335.563 C 344.051 335.426 347.198 334.232 347.723 333.111 C 348.249 331.99 347.644 330.059 347.644 330.059 L 316.597 335.917 Z " fill="rgb(44,61,67)"/><path d=" M 336.127 320.813 C 336.001 320.786 335.874 320.76 335.744 320.734 C 335.534 320.692 335.315 320.65 335.106 320.7 C 334.869 320.756 334.674 320.924 334.509 321.103 C 333.988 321.668 333.675 322.389 333.272 323.044 C 332.259 324.699 330.129 326.069 327.804 327.319 C 326.222 328.169 324.674 328.828 323.041 329.562 C 321.376 330.311 319.166 330.769 317.863 331.647 C 315.964 332.927 315.719 336.142 317.883 337.412 C 319.749 338.508 324.66 339.695 329.81 338.236 C 332.616 337.441 335.731 334.443 339.414 334.155 C 341.756 333.972 346.184 333.314 347.692 331.536 C 348.25 330.747 347.506 328.246 346.894 326.088 C 346.228 323.732 345.594 320.056 344.813 320.263 C 344.78 320.725 344.709 320.828 344.405 321.142 C 344.116 321.441 343.727 321.631 343.413 321.9 C 342.834 322.394 342.477 323.093 342.117 323.764 C 341.961 324.054 341.776 324.363 341.452 324.485 C 341.057 324.633 340.763 324.384 340.417 324.225 C 339.982 324.025 339.475 323.989 339.017 324.125 C 339.062 323.659 339.144 323.196 339.263 322.742 C 339.303 322.596 339.345 322.44 339.299 322.296 C 339.252 322.151 339.124 322.047 338.998 321.959 C 338.096 321.326 337.163 321.037 336.127 320.813 Z " fill="rgb(67,96,105)"/><path d=" M 329.99 326.046 C 329.99 326.046 330.327 325.147 331.72 324.888 C 332.786 324.689 334.668 325.475 335.838 326.439 C 336.316 326.833 336.255 327.582 335.712 327.882 C 335.388 328.061 334.992 328.014 334.714 327.772 C 333.946 327.104 332.226 325.891 329.99 326.046 Z " fill="rgb(239,238,237)"/><path d=" M 326.687 327.895 C 326.687 327.895 327.376 326.819 328.737 326.839 C 328.737 326.839 331.519 326.919 333.242 328.525 C 333.681 328.934 333.651 329.632 333.125 329.921 C 332.811 330.093 332.43 330.047 332.163 329.809 C 331.388 329.116 329.832 327.66 326.687 327.895 Z " fill="rgb(239,238,237)"/><path d=" M 323.041 329.562 C 323.041 329.562 323.808 328.588 325.169 328.609 C 325.169 328.609 327.762 328.705 329.484 330.311 C 329.924 330.721 329.893 331.418 329.367 331.707 C 329.054 331.879 328.672 331.833 328.405 331.596 C 327.63 330.903 326.185 329.328 323.041 329.562 Z " fill="rgb(239,238,237)"/><path d=" M 376.882 209.478 C 377.491 227.95 377.533 267.949 377.533 267.949 C 377.728 270.247 377.927 274.333 378.098 282.611 C 378.347 294.615 378.921 324.237 378.921 324.237 C 378.921 324.237 373.194 326.926 367.942 324.738 C 367.942 324.738 360.622 283.079 359.123 271.198 C 357.815 260.828 355.305 236.506 355.305 236.506 L 351.84 267.383 C 351.84 267.383 351.879 275.334 351.373 282.44 C 350.982 287.936 345.647 316.269 345.647 316.269 C 345.647 316.269 340.778 317.85 335.058 315.918 C 335.058 315.918 334.571 272.426 334.474 267.383 C 334.364 261.634 335.844 199.58 335.844 199.58 L 376.882 209.478 Z " fill="rgb(67,96,105)"/><path d=" M 355.305 236.506 L 353.989 226.038 C 353.989 226.038 348.487 224.923 342.084 220.582 C 342.084 220.582 344.621 223.982 352.062 227.578 L 353.741 237.077 L 351.84 267.383 L 355.305 236.506 Z " fill="rgb(56,79,86)"/><path d=" M 335.359 157.646 C 332.658 161.188 318.761 180.249 318.761 180.249 L 305.933 170.308 C 302.897 167.954 302.042 164.874 300.16 162.752 C 298.277 160.63 296.223 160.108 294.116 158.327 C 292.009 156.545 291.191 155.197 290.472 156.714 C 289.754 158.23 292.081 160.886 292.485 161.532 C 292.89 162.179 295.287 163.698 292.101 163.568 C 288.917 163.439 282.807 159.764 281.326 159.094 C 279.844 158.425 279.809 160.255 280.5 161.455 C 281.191 162.656 280.858 165.999 281.671 168.151 C 282.483 170.303 283.936 171.615 286.865 173.071 C 289.594 174.428 296.237 175.28 298.395 176.643 L 298.396 176.643 C 303.131 181.494 312.073 190.569 314.333 192.245 C 317.445 194.554 320.454 196.684 325.212 192.11 C 329.97 187.535 343.764 169.554 343.764 169.554 L 346.617 152.471 C 341.925 152.258 338.614 153.376 335.359 157.646 Z " fill="rgb(195,110,112)"/><path d=" M 318.761 180.249 C 320.521 181.547 322.352 184.468 322.527 185.776 C 322.527 185.776 322.738 182.286 319.515 179.214 L 318.761 180.249 Z " fill="rgb(173,87,91)"/><path d=" M 347.703 152.012 C 347.703 152.012 341.107 151.924 338.203 153.958 C 335.298 155.993 333.154 158.93 328.441 165.813 C 324.31 171.846 322.316 174.691 322.316 174.691 C 322.316 174.691 325.769 180.54 333.529 183.253 L 345.848 167.991 L 347.703 152.012 Z " fill="rgb(56,79,86)"/><path d=" M 360.475 151.687 C 364.22 152.05 369.458 152.093 373.175 152.47 C 375.749 153.529 380.703 157.847 380.334 160.93 C 378.957 172.439 376.164 191.307 376.164 191.307 L 377.084 211.291 C 371.934 216.429 347.83 218.435 335.417 210.214 C 335.417 210.214 335.818 174.293 336.671 168.237 C 338.203 157.349 339.544 153.308 345.162 152.344 C 350.78 151.38 360.475 151.687 360.475 151.687 Z " fill="rgb(0,179,169)"/><path d=" M 381.658 157.933 C 384.359 161.476 398.257 180.537 398.257 180.537 L 411.084 170.596 C 414.12 168.242 414.974 165.161 416.857 163.039 C 418.74 160.918 420.794 160.396 422.901 158.615 C 425.009 156.833 425.826 155.485 426.545 157.001 C 427.263 158.518 424.936 161.174 424.531 161.82 C 424.127 162.466 421.73 163.986 424.916 163.856 C 428.1 163.726 434.21 160.051 435.691 159.382 C 437.174 158.712 437.208 160.542 436.517 161.743 C 435.826 162.943 436.159 166.287 435.346 168.439 C 434.534 170.59 433.08 171.903 430.152 173.359 C 427.424 174.716 420.78 175.568 418.621 176.931 C 413.887 181.782 404.944 190.857 402.684 192.533 C 399.572 194.842 396.562 196.973 391.805 192.397 C 387.048 187.822 376.164 173.597 376.164 173.597 L 370.4 152.759 C 375.093 152.545 378.402 153.664 381.658 157.933 Z " fill="rgb(195,110,112)"/><path d=" M 398.257 180.537 C 396.495 181.835 394.664 184.756 394.49 186.063 C 394.49 186.063 394.279 182.575 397.502 179.502 L 398.257 180.537 Z " fill="rgb(173,87,91)"/><path d=" M 369.764 152.218 C 369.764 152.218 375.694 151.851 378.814 154.246 C 381.628 156.405 383.863 159.218 388.576 166.101 C 392.707 172.134 394.701 174.978 394.701 174.978 C 394.701 174.978 391.248 180.827 383.487 183.54 L 375.119 173.172 C 370.724 167.632 366.392 159.201 369.764 152.218 Z " fill="rgb(56,79,86)"/><path d=" M 361.405 124.611 C 361.462 131.018 356.313 136.258 349.906 136.314 C 343.499 136.37 338.26 131.221 338.203 124.814 C 338.147 118.407 343.296 113.167 349.703 113.111 C 356.11 113.055 361.349 118.204 361.405 124.611 Z " fill="rgb(44,61,67)"/><path d=" M 369.93 132.785 C 369.93 132.785 368.128 141.634 367.387 143.092 C 366.645 144.55 365.092 144.976 365.092 144.976 L 365.168 138.762 L 369.93 132.785 Z " fill="rgb(44,61,67)"/><path d=" M 367.461 120.154 C 367.461 120.154 369.482 119.788 371.075 121.389 C 372.636 122.958 371.815 127.918 369.93 132.785 L 366.392 133.223 L 367.461 120.154 Z " fill="rgb(44,61,67)"/><path d=" M 365.331 133.236 C 366.045 133.654 367.046 132.28 367.913 131.356 C 368.781 130.433 371.629 129.156 373.081 132.148 C 374.56 135.197 371.885 139.267 369.64 139.993 C 365.772 141.244 365.168 138.762 365.168 138.762 L 365.009 153.182 C 360.24 159.407 346.853 159.002 352.373 152.495 L 352.346 148.237 C 352.346 148.237 348.837 148.801 347.121 148.551 C 344.264 148.135 342.45 145.9 341.558 142.821 C 340.125 137.874 339.562 133.874 340.656 124.111 C 341.854 113.41 354.287 113.19 361.038 117.357 C 367.789 121.524 365.331 133.236 365.331 133.236 Z " fill="rgb(195,110,112)"/><path d=" M 365.342 134.43 C 365.699 134.434 367.037 132.168 367.913 131.356 C 369.129 130.231 367.461 120.154 367.461 120.154 C 367.461 120.154 368.951 117.287 366.569 114.712 C 364.875 112.881 362.515 110.646 354.91 111.613 C 349.488 112.302 343.596 114.047 338.804 111.744 C 338.115 114.72 338.721 118.027 341.708 120.348 C 341.708 120.348 343.445 121.446 347.994 121.959 C 352.542 122.473 359.612 121.751 360.579 121.611 C 361.894 121.419 362.187 122.693 362.928 126.175 C 363.578 129.232 364.14 134.417 365.342 134.43 Z " fill="rgb(44,61,67)"/><path d=" M 367.461 120.938 L 371.733 118.596 C 371.113 117.371 369.654 116.903 368.474 117.549 C 367.294 118.196 366.84 119.713 367.461 120.938 Z " fill="rgb(44,61,67)"/><path d=" M 352.346 148.237 C 352.346 148.237 358.702 146.899 360.918 145.696 C 362.4 144.891 363.616 143.508 363.969 142.624 C 363.969 142.624 363.568 144.517 362.252 146.231 C 360.642 148.326 352.361 149.931 352.361 149.931 L 352.346 148.237 Z " fill="rgb(173,87,91)"/><path d=" M 351.83 132.217 C 351.837 132.95 352.413 133.536 353.118 133.528 C 353.822 133.52 354.388 132.92 354.382 132.188 C 354.376 131.455 353.8 130.868 353.095 130.876 C 352.389 130.885 351.824 131.485 351.83 132.217 Z " fill="rgb(44,61,67)"/><path d=" M 355.624 127.828 L 352.785 126.538 C 352.445 127.352 352.805 128.3 353.589 128.656 C 354.373 129.012 355.284 128.641 355.624 127.828 Z " fill="rgb(44,61,67)"/><path d=" M 343.471 126.257 L 341 128.198 C 341.514 128.906 342.485 129.045 343.167 128.509 C 343.849 127.973 343.985 126.964 343.471 126.257 Z " fill="rgb(44,61,67)"/><path d=" M 341.983 131.912 C 341.989 132.614 342.542 133.176 343.218 133.168 C 343.892 133.16 344.435 132.586 344.429 131.884 C 344.423 131.182 343.87 130.619 343.195 130.627 C 342.519 130.635 341.976 131.21 341.983 131.912 Z " fill="rgb(44,61,67)"/><path d=" M 348.6 130.876 L 347.887 138.528 L 343.935 137.009 L 348.6 130.876 Z " fill="rgb(173,87,91)"/><path d=" M 350.779 141.401 C 350.779 142.077 351.327 142.624 352.002 142.624 C 352.678 142.624 353.225 142.077 353.225 141.401 C 353.225 140.726 352.678 140.178 352.002 140.178 C 351.327 140.178 350.779 140.726 350.779 141.401 Z " fill="rgb(173,87,91)"/><path d=" M 376.714 95.472 C 377.164 95.572 377.518 95.823 377.772 96.225 C 378.029 96.625 378.107 97.052 378.007 97.504 L 376.806 102.925 C 376.706 103.378 376.456 103.732 376.055 103.986 C 375.653 104.243 375.227 104.321 374.776 104.221 L 369.477 103.048 C 369.024 102.946 368.671 102.697 368.415 102.295 C 368.158 101.893 368.081 101.468 368.18 101.015 L 369.382 95.593 C 369.482 95.142 369.732 94.788 370.134 94.532 C 370.536 94.277 370.961 94.198 371.414 94.299 L 376.714 95.472 Z  M 381.997 59.932 C 383.929 60.359 385.748 61.043 387.457 61.982 C 389.166 62.92 390.615 64.071 391.8 65.432 C 392.985 66.792 393.838 68.338 394.359 70.071 C 394.881 71.801 394.918 73.674 394.472 75.686 C 394.109 77.329 393.536 78.7 392.755 79.797 C 391.971 80.895 391.074 81.838 390.06 82.626 C 389.046 83.413 387.976 84.104 386.855 84.695 C 385.732 85.288 384.67 85.85 383.671 86.38 C 382.668 86.913 381.763 87.5 380.954 88.139 C 380.143 88.778 379.579 89.537 379.255 90.413 C 379.071 90.846 378.801 91.195 378.441 91.459 C 378.08 91.725 377.675 91.807 377.223 91.707 L 372.541 90.669 C 372.089 90.57 371.723 90.318 371.449 89.911 C 371.173 89.505 371.104 89.082 371.246 88.639 C 371.682 87.056 372.332 85.723 373.196 84.643 C 374.06 83.564 375.019 82.635 376.076 81.855 C 377.132 81.077 378.229 80.405 379.367 79.838 C 380.504 79.271 381.563 78.72 382.546 78.183 C 383.525 77.646 384.362 77.077 385.055 76.476 C 385.748 75.877 386.19 75.144 386.382 74.282 C 386.726 72.721 386.354 71.292 385.263 69.994 C 384.171 68.698 382.537 67.808 380.359 67.325 C 376.869 66.552 373.915 67.73 371.5 70.857 C 371.194 71.264 370.903 71.554 370.629 71.73 C 370.351 71.907 369.946 71.935 369.412 71.816 L 364.423 70.712 C 364.054 70.63 363.762 70.435 363.55 70.13 C 363.337 69.825 363.277 69.467 363.367 69.056 C 363.725 67.627 364.494 66.257 365.668 64.944 C 366.84 63.632 368.271 62.527 369.956 61.628 C 371.641 60.732 373.526 60.102 375.608 59.745 C 377.692 59.389 379.82 59.45 381.997 59.932 Z " fill="rgb(0,179,169)"/><path d=" M 403.427 135.056 C 403.742 135.006 404.033 135.076 404.301 135.267 C 404.567 135.46 404.725 135.713 404.777 136.027 L 405.395 139.812 C 405.447 140.127 405.377 140.418 405.185 140.684 C 404.993 140.952 404.74 141.11 404.425 141.161 L 400.727 141.765 C 400.413 141.817 400.121 141.748 399.855 141.556 C 399.588 141.364 399.429 141.111 399.377 140.796 L 398.759 137.012 C 398.708 136.697 398.777 136.406 398.97 136.139 C 399.161 135.872 399.415 135.712 399.729 135.661 L 403.427 135.056 Z  M 397.718 110.92 C 399.064 110.701 400.406 110.671 401.743 110.836 C 403.078 111 404.301 111.366 405.41 111.934 C 406.517 112.505 407.461 113.278 408.237 114.254 C 409.016 115.231 409.518 116.422 409.749 117.825 C 409.935 118.971 409.919 119.998 409.699 120.901 C 409.479 121.806 409.144 122.641 408.696 123.405 C 408.247 124.169 407.739 124.886 407.171 125.552 C 406.602 126.219 406.065 126.85 405.56 127.448 C 405.055 128.045 404.625 128.654 404.269 129.271 C 403.913 129.887 403.745 130.518 403.763 131.162 C 403.756 131.488 403.671 131.78 403.509 132.042 C 403.345 132.305 403.105 132.461 402.792 132.513 L 399.524 133.047 C 399.208 133.098 398.91 133.03 398.629 132.84 C 398.347 132.651 398.196 132.396 398.173 132.076 C 398.048 130.949 398.123 129.929 398.402 129.015 C 398.678 128.102 399.055 127.26 399.533 126.491 C 400.011 125.722 400.542 125.01 401.127 124.355 C 401.712 123.701 402.249 123.075 402.741 122.479 C 403.231 121.886 403.622 121.306 403.913 120.744 C 404.204 120.181 404.301 119.599 404.203 118.996 C 404.024 117.909 403.42 117.088 402.386 116.535 C 401.354 115.982 400.079 115.83 398.56 116.078 C 396.125 116.476 394.532 117.988 393.783 120.611 C 393.691 120.949 393.581 121.21 393.448 121.393 C 393.316 121.578 393.063 121.7 392.691 121.76 L 389.211 122.33 C 388.951 122.372 388.715 122.322 388.501 122.181 C 388.286 122.038 388.156 121.825 388.109 121.538 C 387.972 120.532 388.114 119.456 388.532 118.313 C 388.947 117.171 389.582 116.097 390.431 115.09 C 391.283 114.082 392.33 113.199 393.573 112.436 C 394.818 111.673 396.199 111.168 397.718 110.92 Z " fill="rgb(0,179,169)"/><clipPath id="_clipPath_4nm5vyNVjJAwf3uFwJ1vIyU6dyc6WLqB"><path d=" M 400.529 141.782 C 400.289 141.782 400.064 141.707 399.855 141.556 C 399.588 141.364 399.429 141.111 399.377 140.796 L 398.759 137.012 C 398.748 136.945 398.743 136.88 398.743 136.816 C 398.743 136.575 398.818 136.35 398.97 136.139 C 399.161 135.872 399.415 135.712 399.729 135.661 L 403.427 135.056 C 403.493 135.046 403.558 135.04 403.622 135.04 C 403.863 135.04 404.089 135.116 404.301 135.267 C 404.567 135.46 404.725 135.713 404.777 136.027 L 405.395 139.812 C 405.406 139.878 405.412 139.944 405.412 140.008 C 405.412 140.248 405.336 140.474 405.185 140.684 C 404.993 140.952 404.74 141.11 404.425 141.161 L 400.727 141.765 C 400.66 141.777 400.594 141.782 400.529 141.782 Z  M 399.323 133.063 C 399.081 133.063 398.85 132.989 398.629 132.84 C 398.347 132.651 398.196 132.396 398.173 132.076 C 398.134 131.723 398.114 131.382 398.114 131.05 C 398.115 130.322 398.21 129.643 398.402 129.015 C 398.678 128.102 399.055 127.26 399.533 126.491 C 400.011 125.722 400.542 125.01 401.127 124.355 C 401.712 123.701 402.249 123.075 402.741 122.479 C 403.231 121.886 403.622 121.306 403.913 120.744 C 404.131 120.322 404.24 119.889 404.24 119.445 C 404.24 119.297 404.227 119.147 404.203 118.996 C 404.024 117.909 403.42 117.088 402.386 116.535 C 401.674 116.153 400.846 115.963 399.902 115.963 C 399.478 115.963 399.031 116.001 398.56 116.078 C 396.125 116.476 394.532 117.988 393.783 120.611 C 393.691 120.949 393.581 121.21 393.448 121.393 C 393.316 121.578 393.063 121.7 392.691 121.76 L 389.211 122.33 C 389.151 122.34 389.093 122.344 389.036 122.344 C 388.844 122.344 388.666 122.29 388.501 122.181 C 388.286 122.038 388.156 121.825 388.109 121.538 C 388.076 121.294 388.059 121.046 388.059 120.795 C 388.057 120.007 388.215 119.179 388.532 118.313 C 388.947 117.171 389.582 116.097 390.431 115.09 C 391.283 114.082 392.33 113.199 393.573 112.436 C 394.818 111.673 396.199 111.168 397.718 110.92 C 398.49 110.794 399.261 110.731 400.03 110.731 C 400.602 110.731 401.173 110.766 401.743 110.836 C 403.078 111 404.301 111.366 405.41 111.934 C 406.517 112.505 407.461 113.278 408.237 114.254 C 409.016 115.231 409.518 116.422 409.749 117.825 C 409.835 118.353 409.878 118.856 409.877 119.334 C 409.877 119.892 409.817 120.415 409.699 120.901 C 409.479 121.806 409.144 122.641 408.696 123.405 C 408.247 124.169 407.739 124.886 407.171 125.552 C 406.602 126.219 406.065 126.85 405.56 127.448 C 405.055 128.045 404.625 128.654 404.269 129.271 C 403.93 129.858 403.761 130.459 403.761 131.071 C 403.761 131.102 403.762 131.132 403.763 131.162 C 403.756 131.488 403.671 131.78 403.509 132.042 C 403.345 132.305 403.105 132.461 402.792 132.513 L 399.524 133.047 C 399.456 133.058 399.389 133.063 399.323 133.063 Z " fill-rule="evenodd" fill="rgb(255,255,255)"/></clipPath><g clip-path="url(#_clipPath_4nm5vyNVjJAwf3uFwJ1vIyU6dyc6WLqB)"><path d=" M 388.057 110.731 L 409.878 110.731 L 409.878 141.782 L 388.057 141.782 L 388.057 110.731 Z " fill="rgb(0,175,156)"/></g><path d=" M 447.115 96.556 C 448.432 97.491 449.587 98.586 450.575 99.838 C 451.562 101.09 452.289 102.417 452.746 103.82 C 453.206 105.223 453.355 106.659 453.197 108.129 C 453.039 109.601 452.471 111.023 451.494 112.397 C 450.696 113.519 449.828 114.369 448.89 114.946 C 447.952 115.525 446.974 115.95 445.96 116.219 C 444.943 116.49 443.919 116.669 442.885 116.759 C 441.85 116.846 440.872 116.932 439.948 117.013 C 439.025 117.095 438.155 117.248 437.343 117.472 C 436.528 117.696 435.861 118.088 435.339 118.644 C 435.062 118.913 434.748 119.089 434.391 119.174 C 434.035 119.259 433.704 119.191 433.395 118.973 L 430.198 116.699 C 429.889 116.48 429.695 116.174 429.617 115.78 C 429.538 115.387 429.621 115.046 429.869 114.757 C 430.704 113.702 431.617 112.906 432.612 112.368 C 433.607 111.83 434.626 111.436 435.67 111.184 C 436.712 110.934 437.753 110.777 438.792 110.713 C 439.829 110.648 440.802 110.57 441.714 110.478 C 442.623 110.386 443.432 110.225 444.148 109.993 C 444.86 109.761 445.427 109.35 445.847 108.762 C 446.603 107.696 446.777 106.501 446.368 105.176 C 445.96 103.851 445.012 102.66 443.527 101.603 C 441.141 99.909 438.541 99.855 435.724 101.441 C 435.364 101.65 435.053 101.777 434.791 101.822 C 434.525 101.866 434.213 101.759 433.848 101.5 L 430.439 99.077 C 430.187 98.898 430.03 98.66 429.968 98.362 C 429.905 98.063 429.973 97.775 430.172 97.494 C 430.897 96.532 431.911 95.743 433.215 95.129 C 434.517 94.514 435.946 94.136 437.503 93.997 C 439.057 93.858 440.677 93.984 442.359 94.379 C 444.043 94.772 445.627 95.498 447.115 96.556 Z  M 431.811 121.646 C 432.119 121.866 432.306 122.167 432.372 122.551 C 432.435 122.935 432.359 123.281 432.139 123.59 L 429.509 127.291 C 429.289 127.6 428.988 127.787 428.603 127.851 C 428.22 127.917 427.873 127.839 427.564 127.62 L 423.947 125.048 C 423.637 124.828 423.452 124.528 423.387 124.144 C 423.322 123.759 423.399 123.414 423.62 123.105 L 426.251 119.403 C 426.469 119.094 426.769 118.908 427.156 118.843 C 427.539 118.778 427.884 118.855 428.193 119.075 L 431.811 121.646 Z " fill="rgb(0,179,169)"/><path d=" M 428.345 127.874 C 428.062 127.874 427.802 127.789 427.564 127.62 L 423.947 125.048 C 423.637 124.828 423.452 124.528 423.387 124.144 C 423.373 124.057 423.365 123.972 423.365 123.889 C 423.364 123.605 423.449 123.344 423.62 123.105 L 426.251 119.403 C 426.469 119.094 426.769 118.908 427.156 118.843 C 427.243 118.828 427.329 118.821 427.412 118.821 C 427.694 118.821 427.954 118.905 428.193 119.075 L 431.811 121.646 C 432.119 121.866 432.306 122.167 432.372 122.551 C 432.386 122.638 432.393 122.723 432.393 122.806 C 432.393 123.09 432.309 123.351 432.139 123.59 L 429.509 127.291 C 429.289 127.6 428.988 127.787 428.603 127.851 C 428.515 127.866 428.429 127.874 428.345 127.874 Z  M 434.099 119.21 C 433.852 119.21 433.618 119.13 433.395 118.973 L 430.198 116.699 C 429.889 116.48 429.695 116.174 429.617 115.78 C 429.598 115.685 429.588 115.593 429.588 115.503 C 429.588 115.225 429.681 114.976 429.869 114.757 C 430.704 113.702 431.617 112.906 432.612 112.368 C 433.607 111.83 434.626 111.436 435.67 111.184 C 436.712 110.934 437.753 110.777 438.792 110.713 C 439.829 110.648 440.802 110.57 441.714 110.478 C 442.623 110.386 443.432 110.225 444.148 109.993 C 444.86 109.761 445.427 109.35 445.847 108.762 C 446.337 108.07 446.583 107.325 446.583 106.525 C 446.584 106.092 446.512 105.642 446.368 105.176 C 445.96 103.851 445.012 102.66 443.527 101.603 C 442.295 100.728 441.005 100.29 439.659 100.29 C 438.397 100.29 437.086 100.674 435.724 101.441 C 435.364 101.65 435.053 101.777 434.791 101.822 C 434.752 101.828 434.712 101.831 434.672 101.831 C 434.433 101.831 434.16 101.721 433.848 101.5 L 430.439 99.077 C 430.187 98.898 430.03 98.66 429.968 98.362 C 429.952 98.289 429.945 98.218 429.945 98.146 C 429.946 97.924 430.021 97.707 430.172 97.494 C 430.897 96.532 431.911 95.743 433.215 95.129 C 434.517 94.514 435.946 94.136 437.503 93.997 C 437.91 93.961 438.322 93.942 438.738 93.942 C 439.91 93.942 441.117 94.087 442.359 94.379 C 444.043 94.772 445.627 95.498 447.115 96.556 C 448.432 97.491 449.587 98.586 450.575 99.838 C 451.562 101.09 452.289 102.417 452.746 103.82 C 453.087 104.861 453.258 105.921 453.258 106.999 C 453.258 107.373 453.238 107.75 453.197 108.129 C 453.039 109.601 452.471 111.023 451.494 112.397 C 450.696 113.519 449.828 114.369 448.89 114.946 C 447.952 115.525 446.974 115.95 445.96 116.219 C 444.943 116.49 443.919 116.669 442.885 116.759 C 441.85 116.846 440.872 116.932 439.948 117.013 C 439.025 117.095 438.155 117.248 437.343 117.472 C 436.528 117.696 435.861 118.088 435.339 118.644 C 435.062 118.913 434.748 119.089 434.391 119.174 C 434.292 119.198 434.195 119.21 434.099 119.21 Z " fill="rgb(134,208,207)"/><path d=" M 109.576 319.633 C 109.47 316.655 111.637 287.31 111.637 287.31 L 97.359 297.664 C 100.289 315.151 100.913 319.275 100.965 322.137 C 100.943 322.203 100.884 322.446 100.888 322.869 C 100.9 326.266 104.734 328.099 107.725 330.364 C 108.907 331.258 112.343 333.9 115.815 335.645 C 117.988 336.737 122.401 336.836 122.948 335.438 C 119.307 332.659 114.014 328.499 111.119 325.326 C 109.737 323.81 109.683 322.61 109.576 319.633 Z " fill="rgb(245,160,165)"/><path d=" M 129.153 339.095 C 129.339 339.095 129.558 340.954 128.545 341.828 C 127.375 342.837 124.001 344.573 119.463 343.986 C 114.925 343.398 112.469 342.113 110.653 340.593 C 108.837 339.073 106.291 336.929 104.239 336.475 C 102.332 336.055 100.261 335.191 99.651 334.601 C 99.04 334.012 99.125 331.391 99.125 331.391 L 129.153 339.095 Z " fill="rgb(44,61,67)"/><path d=" M 100.935 321.306 C 100.935 321.306 100.366 321.312 100.248 321.919 C 100.109 322.641 99.958 324.741 99.658 325.926 C 99.241 327.574 98.961 330.951 99.211 332.293 C 99.461 333.636 102.57 334.569 104.556 335.326 C 106.585 336.099 108.931 337.692 110.992 339.391 C 113.124 341.15 117.61 342.979 120.568 342.958 C 124.068 342.932 128.008 341.8 128.911 340.177 C 130.028 338.169 129.153 337.006 123.964 334.601 C 122.981 334.146 119.531 332.103 118.355 331.363 C 115.174 329.36 112.022 326.572 110.558 323.028 C 110.388 322.614 110.208 322.155 109.813 321.944 C 109.51 321.783 109.144 321.806 108.804 321.853 C 107.939 321.974 107.094 322.23 106.306 322.606 C 105.61 322.938 104.622 323.325 104.637 324.216 C 104.642 324.526 104.732 324.829 104.832 325.123 C 104.895 325.305 104.943 325.547 104.784 325.655 C 104.634 325.756 104.434 325.64 104.299 325.519 C 103.755 325.033 103.357 324.409 102.9 323.84 C 102.655 323.536 102.388 323.244 102.078 323.003 C 101.798 322.785 101.439 322.676 101.19 322.428 C 100.875 322.114 100.95 321.724 100.935 321.306 Z " fill="rgb(67,96,105)"/><path d=" M 110.992 339.391 C 110.086 338.644 109.126 337.923 108.161 337.278 L 108.161 337.274 C 108.161 337.274 114.263 340.984 116.729 339.3 C 118.318 338.215 117.562 336.897 117.524 336.475 C 117.486 336.054 121.405 334.251 122.948 334.067 C 123.377 334.305 123.738 334.496 123.964 334.601 C 129.153 337.006 130.028 338.169 128.911 340.177 C 128.008 341.8 125.153 343.065 120.63 343.065 C 117.672 343.065 113.124 341.149 110.992 339.391 Z " fill="rgb(56,79,86)"/><path d=" M 117.098 335.247 C 120.325 336.538 118.948 337.14 118.044 337.27 C 117.141 337.399 111.71 334.226 108.397 331.605 C 104.942 328.871 102.764 325.883 101.481 324.879 C 101.002 324.505 100.487 324.045 100.029 323.616 C 100.114 322.905 100.183 322.258 100.248 321.919 C 100.366 321.312 100.935 321.306 100.935 321.306 C 100.95 321.724 100.875 322.114 101.19 322.428 C 101.439 322.676 101.798 322.785 102.078 323.003 C 102.388 323.244 102.655 323.536 102.9 323.84 C 103.357 324.409 103.755 325.033 104.299 325.519 C 107.117 329.096 113.871 333.957 117.098 335.247 Z " fill="rgb(44,61,67)"/><path d=" M 117.815 336.795 L 117.613 336.723 C 117.476 336.612 117.455 336.41 117.568 336.274 C 118.479 335.159 121.105 333.682 123.479 333.943 C 123.655 333.961 123.782 334.119 123.762 334.294 C 123.743 334.469 123.604 334.591 123.41 334.577 C 121.194 334.339 118.784 335.794 118.062 336.678 C 117.999 336.755 117.908 336.795 117.815 336.795 Z " fill="rgb(239,238,237)"/><path d=" M 115 335.063 L 114.798 334.991 C 114.661 334.879 114.642 334.678 114.753 334.541 C 115.663 333.427 118.288 331.952 120.664 332.211 C 120.84 332.23 120.967 332.388 120.948 332.563 C 120.929 332.738 120.776 332.865 120.596 332.846 C 118.378 332.611 115.969 334.062 115.247 334.946 C 115.185 335.023 115.093 335.063 115 335.063 Z " fill="rgb(239,238,237)"/><path d=" M 112.185 333.422 L 111.983 333.35 C 111.846 333.239 111.826 333.037 111.938 332.901 C 112.849 331.785 115.475 330.307 117.849 330.571 C 118.025 330.589 118.152 330.747 118.132 330.922 C 118.114 331.097 117.963 331.224 117.781 331.205 C 115.563 330.967 113.154 332.421 112.432 333.305 C 112.369 333.382 112.278 333.422 112.185 333.422 Z " fill="rgb(239,238,237)"/><path d=" M 109.576 331.548 L 109.374 331.476 C 109.238 331.365 109.218 331.163 109.329 331.027 C 110.24 329.911 112.875 328.436 115.241 328.697 C 115.416 328.715 115.543 328.873 115.524 329.048 C 115.505 329.223 115.354 329.349 115.172 329.331 C 112.957 329.095 110.545 330.547 109.824 331.431 C 109.761 331.508 109.669 331.548 109.576 331.548 Z " fill="rgb(239,238,237)"/><path d=" M 107.021 329.674 L 106.823 329.605 C 106.684 329.495 106.661 329.294 106.771 329.157 C 108.023 327.576 110.853 326.535 113.226 326.794 C 113.402 326.813 113.529 326.971 113.509 327.146 C 113.491 327.321 113.338 327.443 113.158 327.429 C 111.021 327.197 108.382 328.152 107.271 329.553 C 107.208 329.633 107.115 329.674 107.021 329.674 Z " fill="rgb(239,238,237)"/><path d=" M 82.672 300.658 L 68.265 300.396 C 68.479 310.014 70.008 320.689 70.257 329.713 C 70.305 331.411 70.215 342.911 70.855 346.407 C 71.818 351.658 78.051 350.949 78.382 347.806 C 78.712 344.664 77.98 331.238 78 329.853 C 77.945 324.066 80.658 314.297 82.08 303.908 C 82.15 303.398 82.606 301.155 82.672 300.658 Z " fill="rgb(245,160,165)"/><path d=" M 80.73 349.993 C 80.86 353.079 80.588 355.161 79.681 357.07 C 78.773 358.978 76.776 359.749 74.643 359.432 C 72.511 359.114 69.705 357.974 68.843 355.387 C 67.981 352.801 67.919 350.975 68.105 348.082 L 80.73 349.993 Z " fill="rgb(44,61,67)"/><path d=" M 70.221 328.61 C 69.371 328.763 69.532 332.908 69.453 337.082 C 69.368 341.556 68.232 343.517 68.123 347.189 C 67.999 351.385 68.403 353.213 70.105 355.572 C 71.808 357.93 77.192 359.869 79.363 356.029 C 81.133 352.897 80.891 349.647 80.288 345.531 C 79.663 341.275 79.19 338.286 79.039 335.024 C 78.894 331.907 78.806 328.88 78.027 328.61 C 78.015 329.071 78.017 329.654 78.002 330.107 C 77.99 330.455 78.073 332.143 77.594 332.207 C 77.51 331.816 77.481 331.446 77.467 331.04 C 77.455 330.687 77.387 330.307 77.132 330.063 C 76.875 329.817 76.493 329.768 76.138 329.734 C 75.278 329.652 74.415 329.588 73.55 329.597 C 73.119 329.601 72.689 329.624 72.261 329.672 C 71.914 329.711 71.508 329.781 71.191 329.936 C 70.996 330.031 70.824 330.194 70.769 330.403 C 70.729 330.558 70.756 330.721 70.772 330.88 C 70.801 331.167 70.794 331.457 70.75 331.741 C 70.731 331.867 70.662 332.024 70.536 332.007 C 70.434 331.993 70.383 331.873 70.371 331.771 C 70.318 331.271 70.345 330.901 70.31 330.318 C 70.293 330.048 70.3 329.678 70.277 329.408 C 70.254 329.142 70.23 328.876 70.221 328.61 Z " fill="rgb(67,96,105)"/><path d=" M 68.199 345.992 C 68.176 346.598 68.068 350.603 69.217 351.208 C 70.46 351.863 70.787 348.689 70.787 348.689 C 70.787 348.689 73.437 347.577 77.593 348.918 C 77.453 349.58 78.28 351.635 79.327 351.078 C 80.367 350.525 80.339 345.945 80.338 345.886 C 80.903 349.833 81.081 352.989 79.363 356.029 C 77.192 359.869 71.808 357.93 70.106 355.572 C 68.403 353.213 67.999 351.385 68.123 347.189 C 68.136 346.769 68.163 346.374 68.199 345.992 Z " fill="rgb(56,79,86)"/><path d=" M 71.126 348.923 C 71.259 350.422 69.73 350.065 69.453 347.957 C 69.177 345.85 69.829 340.718 69.453 337.082 C 69.532 332.908 69.371 328.763 70.221 328.61 L 70.232 328.763 L 70.329 330.869 C 70.336 331.176 70.337 331.449 70.371 331.771 C 70.657 334.827 70.82 340.77 70.838 343.589 C 70.855 346.407 70.993 347.424 71.126 348.923 Z " fill="rgb(44,61,67)"/><path d=" M 77.127 348.923 C 77.26 347.424 77.397 346.407 77.415 343.589 C 77.432 340.791 77.593 334.917 77.875 331.842 C 78.033 331.31 77.993 330.359 78.002 330.107 C 78.016 329.684 78.016 329.151 78.025 328.707 L 78.032 328.613 C 78.595 328.817 78.794 330.471 78.917 332.552 C 78.931 333.761 78.89 335.262 78.8 337.082 C 78.423 340.718 79.084 345.879 78.807 347.987 C 78.53 350.094 76.994 350.422 77.127 348.923 Z " fill="rgb(44,61,67)"/><path d=" M 77.689 349.031 L 77.57 349.008 C 77.537 348.994 74.267 347.717 70.9 348.988 C 70.734 349.049 70.55 348.965 70.489 348.801 C 70.426 348.636 70.51 348.452 70.675 348.39 C 74.278 347.031 77.664 348.358 77.808 348.415 C 77.971 348.481 78.051 348.666 77.985 348.83 C 77.935 348.954 77.815 349.031 77.689 349.031 Z " fill="rgb(239,238,237)"/><path d=" M 78.078 345.709 L 77.969 345.691 C 77.933 345.678 74.271 344.39 70.501 345.671 C 70.334 345.725 70.154 345.638 70.096 345.471 C 70.039 345.304 70.129 345.122 70.296 345.066 C 74.284 343.713 78.028 345.034 78.186 345.089 C 78.352 345.15 78.438 345.332 78.378 345.498 C 78.331 345.628 78.208 345.709 78.078 345.709 Z " fill="rgb(239,238,237)"/><path d=" M 70.399 342.564 C 70.278 342.564 70.161 342.494 70.108 342.377 C 70.036 342.216 70.106 342.027 70.266 341.953 C 73.977 340.266 77.969 341.837 78.138 341.906 C 78.302 341.971 78.381 342.157 78.315 342.321 C 78.248 342.484 78.06 342.56 77.9 342.497 C 77.862 342.483 73.984 340.96 70.532 342.535 L 70.399 342.564 Z " fill="rgb(239,238,237)"/><path d=" M 70.327 339.631 C 70.207 339.631 70.093 339.564 70.038 339.45 C 69.962 339.289 70.03 339.099 70.189 339.024 C 74.262 337.085 78.056 338.86 78.215 338.936 C 78.374 339.012 78.442 339.202 78.366 339.362 C 78.289 339.521 78.095 339.589 77.94 339.512 C 77.905 339.494 74.255 337.797 70.464 339.6 L 70.327 339.631 Z " fill="rgb(239,238,237)"/><path d=" M 70.258 336.335 C 70.141 336.335 70.028 336.27 69.972 336.158 C 69.894 335.999 69.958 335.808 70.117 335.73 C 73.927 333.849 78.036 335.646 78.208 335.725 C 78.369 335.796 78.441 335.986 78.369 336.147 C 78.297 336.308 78.109 336.382 77.947 336.307 C 77.907 336.289 73.938 334.555 70.4 336.302 L 70.258 336.335 Z " fill="rgb(239,238,237)"/><path d=" M 73 207.062 C 67.921 221.133 68.818 229.962 69.687 244.704 C 70.485 258.228 71.757 270.134 71.757 270.134 C 71.554 272.534 68.218 277.217 67.787 287.821 C 67.384 297.735 68.81 310.168 68.81 310.168 C 68.81 310.168 75.469 312.597 81.08 310.175 C 81.08 310.175 86.835 284.792 88.401 272.382 C 89.767 261.551 92.141 247.713 92.141 247.713 L 97.17 272.324 C 97.17 272.324 95.682 276.873 95.682 282.52 C 95.682 288.304 98.377 304.408 98.377 304.408 C 98.377 304.408 105.823 306.822 110.548 302.633 C 110.548 302.633 112.412 279.461 113.072 270.667 C 113.954 258.891 112.67 226.602 109.847 210.07 L 73 207.062 Z " fill="rgb(67,96,105)"/><path d=" M 92.141 247.713 L 94.22 229.188 C 94.22 229.188 103.532 227.943 107.75 223.978 C 107.75 223.978 104.581 229.786 96.778 230.912 L 93.772 248.151 L 97.17 272.324 L 92.141 247.713 Z " fill="rgb(56,79,86)"/><path d=" M 115.16 193.377 C 110.639 188.722 102.459 178.182 102.459 178.182 L 97.833 162.161 C 97.721 162.206 100.192 162.214 100.936 162.169 C 105.933 162.503 107.408 162.928 110.516 166.331 C 112.985 169.034 122.405 181.899 125.679 186.225 L 134.368 175.156 C 136.45 172.004 136.113 168.482 137.194 165.911 C 138.275 163.34 140.022 162.205 141.42 159.88 C 142.818 157.555 143.152 156.041 144.301 157.225 C 145.45 158.409 144.124 161.618 143.952 162.348 C 143.78 163.077 142.03 165.249 144.953 164.121 C 147.877 162.993 152.401 157.639 153.569 156.547 C 154.736 155.454 155.347 157.147 155.084 158.483 C 154.821 159.819 156.078 162.844 155.622 165.058 C 155.139 167.409 154.792 168.482 152.527 170.764 C 150.417 172.89 145.251 175.496 143.231 178.284 C 141.211 181.071 136.9 189.744 134.265 194.969 C 130.917 201.61 128.064 203.799 124.298 201.563 C 120.532 199.327 116.837 195.103 115.16 193.377 Z " fill="rgb(245,160,165)"/><path d=" M 99.307 162.01 C 102.459 161.823 105.106 162.249 106.843 163.035 C 109.557 164.261 111.398 166.879 114.046 170.433 C 116.694 173.987 121.425 180.184 121.425 180.184 C 121.425 180.184 120.146 185.574 111.706 190.413 L 97.925 176.227 L 99.307 162.01 Z " fill="rgb(56,79,86)"/><path d=" M 125.679 186.225 C 123.565 188.251 122.672 190.769 122.523 192.057 C 122.523 192.057 121.548 188.852 124.93 185.236 L 125.679 186.225 Z " fill="rgb(243,142,146)"/><path d=" M 109.286 190.413 C 115.431 185.36 113.409 178.77 111.164 174.332 C 106.675 165.458 102.006 161.969 100.059 162.003 L 87.828 162.118 C 81.984 162.915 77.462 162.516 76.05 162.851 C 72.455 163.703 72.377 166.662 72.236 170.492 C 72.081 174.688 69.932 173.976 71.03 180.915 C 71.03 180.915 73.747 186.468 74.406 188.867 C 75.064 191.265 76.922 195.093 75.936 198.973 C 75.555 200.473 74.537 201.934 73 206.076 C 71.563 209.949 70.39 213.694 69.16 220.337 C 69.16 220.337 72.727 219.506 76.789 215.189 C 76.789 215.189 82.338 222.62 95.686 221.867 C 109.534 221.084 110.75 213.874 110.75 213.874 L 108.638 200.854 C 108.954 195.617 109.041 193.721 109.286 190.413 Z " fill="rgb(0,179,169)"/><path d=" M 93.451 193.376 C 92.547 193.376 91.566 193.245 90.51 192.939 C 83.138 190.802 83.639 184.145 83.639 184.145 C 83.639 184.145 84.576 189.212 90.425 191.172 C 91.566 191.554 92.675 191.708 93.722 191.708 C 98.042 191.708 101.297 189.089 101.297 189.089 C 101.297 189.089 98.635 193.376 93.451 193.376 Z " fill="rgb(0,177,163)"/><path d=" M 66.288 156.286 C 64.475 154.965 54.726 168.023 59.325 171.337 C 63.924 174.65 68.747 165.316 67.763 160.958 C 66.779 156.6 66.288 156.286 66.288 156.286 Z " fill="rgb(56,79,86)"/><path d=" M 57.435 149.805 C 59.874 146.425 61.532 143.875 63.761 140.976 C 65.026 139.329 65.833 138.157 67.049 136.469 C 67.886 135.307 68.371 134.331 69.315 133.959 C 70.377 133.54 71.393 132.731 72.068 131.997 C 72.55 131.473 72.942 130.872 73.356 130.293 C 74.749 128.345 76.424 126.598 78.311 125.124 C 80.294 123.575 82.507 122.381 84.543 120.902 C 85.759 120.019 87.053 118.567 85.532 117.258 C 85.078 116.867 84.506 116.64 83.919 116.522 C 80.271 115.791 77.122 117.1 73.583 118.071 C 72.045 118.493 70.534 119.015 69.084 119.679 C 68.38 120.002 67.678 120.351 67.099 120.865 C 66.197 121.664 65.668 122.79 65.091 123.849 C 63.542 126.693 60.275 129.236 57.984 131.469 C 55.295 134.088 52.893 136.488 49.824 139.38 C 47.062 141.982 44.358 144.385 41.833 147.219 C 39.744 149.563 40.55 151.354 40.864 151.973 C 42.662 155.511 44.627 156.757 46.987 158.927 C 47.768 159.645 48.554 160.357 49.342 161.067 C 52.403 163.828 55.47 166.409 58.648 169.035 C 62.044 171.84 63.445 173.202 66.477 175.914 C 68.27 177.517 69.713 179.422 71.186 182.048 C 76.439 182.92 81.597 174.886 77.095 165.495 C 76.365 163.973 75.225 162.684 73.844 161.713 C 68.307 157.822 57.435 149.805 57.435 149.805 Z " fill="rgb(245,160,165)"/><path d=" M 57.435 149.805 C 57.435 149.805 55.123 153.012 51.113 154.322 C 51.113 154.322 54.468 155.116 58.968 150.932 L 57.435 149.805 Z " fill="rgb(243,142,146)"/><path d=" M 76.476 162.771 C 75.244 161.915 72.254 160.108 66.288 156.286 C 66.288 156.286 67.209 158.22 65.754 163.064 C 64.299 167.909 61.247 170.985 59.325 171.337 C 59.325 171.337 62.665 173.974 65.745 176.954 C 68.825 179.934 71.358 182.051 73.139 185.507 C 73.139 185.507 77.539 184.375 78.534 176.921 C 79.233 171.684 78.815 165.547 76.476 162.771 Z " fill="rgb(67,96,105)"/><path d=" M 109.878 138.743 C 111.653 135.206 111.355 130.288 109.067 127.038 C 105.276 121.651 98.882 118.994 91.827 119.118 L 89.634 119.156 C 80.109 119.323 71.447 127.498 71.274 136.707 L 71.267 136.705 C 71.267 143.189 71.293 149.181 74.832 153.595 C 78.127 157.705 83.253 159.059 87.588 159.717 C 95.868 160.973 105.164 160.014 108.922 154.382 C 108.922 154.382 103.978 155.349 104.555 150.196 C 104.647 149.378 103.866 148.479 102.496 147.547 C 103.523 145.909 104.555 144.245 105.867 142.9 C 107.288 141.444 108.918 140.655 109.878 138.743 Z " fill="rgb(44,61,67)"/><path d=" M 107.406 143.477 C 107.356 153.124 104.267 155.562 102.711 156.275 C 101.155 156.987 98.12 156.622 95.174 156.187 L 95.275 161.974 C 95.275 161.974 98.728 165.47 98.521 168.124 C 98.307 170.786 93.244 171.169 89.391 168.64 C 86.578 166.796 84.556 164.667 83.672 163.656 C 83.35 163.288 83.171 162.822 83.163 162.333 L 82.924 148.716 C 82.924 148.716 81.345 150.449 78.461 148.547 C 75.585 146.652 75.275 143.027 76.978 140.941 C 78.193 139.461 81.341 139.303 82.894 141.543 C 83.773 143.193 83.698 144.348 84.858 144.154 C 85.977 143.966 86.108 142.664 86.188 141.739 C 86.268 140.813 86.234 140.507 86.301 139.293 C 89.154 138.679 92.104 134.711 92.437 131.811 C 94.471 132.699 96.61 133.353 98.642 133.213 C 101.835 132.993 103.483 132.352 105.053 130.048 C 105.406 130.494 105.769 131.25 105.941 131.76 C 106.458 133.292 106.726 134.259 106.93 135.546 C 107.345 138.163 107.422 140.832 107.406 143.477 Z " fill="rgb(245,160,165)"/><path d=" M 95.171 156.185 C 92.063 155.833 85.651 154.112 84.613 151.608 C 84.613 151.608 84.972 153.187 86.906 154.787 C 88.84 156.387 95.204 158.116 95.204 158.116 L 95.171 156.185 Z " fill="rgb(243,142,146)"/><path d=" M 98.3 150.989 C 98.312 151.688 97.756 152.264 97.057 152.277 C 96.358 152.289 95.781 151.732 95.769 151.033 C 95.757 150.334 96.313 149.758 97.013 149.745 C 97.711 149.733 98.288 150.29 98.3 150.989 Z " fill="rgb(195,110,112)"/><path d=" M 96.679 141.492 C 96.731 142.256 96.177 142.913 95.442 142.961 C 94.706 143.009 94.069 142.429 94.016 141.665 C 93.965 140.901 94.519 140.243 95.254 140.196 C 95.989 140.148 96.627 140.728 96.679 141.492 Z " fill="rgb(44,61,67)"/><path d=" M 105.691 140.917 C 105.739 141.611 105.235 142.209 104.566 142.252 C 103.831 142.3 103.323 141.838 103.271 141.074 C 103.224 140.38 103.728 139.782 104.396 139.739 C 105.064 139.695 105.644 140.223 105.691 140.917 Z " fill="rgb(44,61,67)"/><path d=" M 99.46 139.667 L 100.427 147.725 L 104.555 146.012 L 99.46 139.667 Z " fill="rgb(243,142,146)"/><path d=" M 91.852 138.009 L 94.255 135.726 C 94.879 136.425 94.848 137.502 94.185 138.132 C 93.521 138.763 92.477 138.707 91.852 138.009 Z " fill="rgb(44,61,67)"/><path d=" M 103.86 134.99 L 106.523 137.004 C 105.99 137.766 104.962 137.933 104.226 137.377 C 103.491 136.821 103.327 135.752 103.86 134.99 Z " fill="rgb(44,61,67)"/><path d=" M 74.651 96.491 C 75.105 96.404 75.529 96.496 75.921 96.765 C 76.315 97.033 76.554 97.394 76.64 97.849 L 77.67 103.305 C 77.756 103.761 77.665 104.185 77.396 104.577 C 77.128 104.971 76.768 105.209 76.313 105.295 L 70.981 106.302 C 70.525 106.387 70.101 106.297 69.708 106.028 C 69.314 105.76 69.075 105.4 68.989 104.944 L 67.959 99.487 C 67.874 99.033 67.965 98.609 68.232 98.215 C 68.502 97.823 68.862 97.583 69.318 97.497 L 74.651 96.491 Z  M 65.522 61.739 C 67.465 61.372 69.407 61.284 71.348 61.474 C 73.288 61.665 75.073 62.152 76.697 62.937 C 78.323 63.721 79.715 64.807 80.876 66.194 C 82.036 67.58 82.808 69.286 83.19 71.311 C 83.503 72.965 83.515 74.451 83.229 75.767 C 82.942 77.085 82.488 78.305 81.865 79.428 C 81.243 80.551 80.531 81.607 79.733 82.592 C 78.934 83.578 78.178 84.513 77.469 85.394 C 76.757 86.278 76.155 87.175 75.663 88.079 C 75.17 88.987 74.95 89.906 74.996 90.839 C 74.999 91.31 74.887 91.737 74.661 92.121 C 74.433 92.508 74.092 92.742 73.639 92.829 L 68.925 93.718 C 68.471 93.804 68.036 93.716 67.623 93.45 C 67.209 93.186 66.98 92.824 66.936 92.361 C 66.714 90.733 66.787 89.252 67.157 87.919 C 67.526 86.588 68.042 85.355 68.706 84.224 C 69.37 83.092 70.115 82.042 70.938 81.074 C 71.76 80.104 72.517 79.181 73.208 78.301 C 73.897 77.422 74.443 76.569 74.844 75.745 C 75.245 74.921 75.364 74.073 75.2 73.204 C 74.903 71.635 73.998 70.467 72.484 69.704 C 70.97 68.941 69.117 68.767 66.926 69.18 C 63.412 69.843 61.161 72.088 60.171 75.914 C 60.05 76.408 59.896 76.789 59.714 77.059 C 59.529 77.33 59.167 77.516 58.629 77.617 L 53.607 78.565 C 53.236 78.635 52.891 78.572 52.577 78.374 C 52.261 78.177 52.064 77.871 51.986 77.458 C 51.753 76.004 51.92 74.442 52.482 72.773 C 53.044 71.105 53.925 69.526 55.119 68.037 C 56.316 66.549 57.802 65.229 59.575 64.082 C 61.349 62.933 63.33 62.152 65.522 61.739 Z " fill="rgb(0,179,169)"/><path d=" M 105.808 106.722 C 106.086 106.878 106.271 107.114 106.362 107.43 C 106.45 107.747 106.417 108.044 106.262 108.322 L 104.394 111.671 C 104.239 111.95 104.003 112.134 103.687 112.223 C 103.37 112.314 103.073 112.28 102.795 112.124 L 99.523 110.299 C 99.245 110.144 99.059 109.909 98.97 109.593 C 98.879 109.276 98.913 108.979 99.068 108.7 L 100.936 105.351 C 101.092 105.074 101.327 104.889 101.644 104.799 C 101.96 104.709 102.258 104.742 102.536 104.897 L 105.808 106.722 Z  M 116.341 84.267 C 117.532 84.932 118.601 85.743 119.546 86.704 C 120.49 87.663 121.22 88.709 121.735 89.844 C 122.248 90.979 122.507 92.17 122.508 93.418 C 122.511 94.668 122.164 95.913 121.472 97.155 C 120.906 98.169 120.254 98.963 119.52 99.534 C 118.786 100.105 118.005 100.551 117.178 100.871 C 116.352 101.191 115.509 101.436 114.649 101.605 C 113.79 101.774 112.977 101.934 112.21 102.089 C 111.442 102.242 110.726 102.451 110.065 102.714 C 109.403 102.975 108.879 103.365 108.492 103.88 C 108.284 104.131 108.036 104.307 107.746 104.412 C 107.455 104.516 107.17 104.489 106.892 104.334 L 104 102.721 C 103.72 102.566 103.53 102.326 103.427 102.003 C 103.325 101.681 103.365 101.387 103.546 101.121 C 104.149 100.16 104.842 99.409 105.628 98.866 C 106.411 98.323 107.231 97.898 108.083 97.592 C 108.935 97.286 109.794 97.059 110.66 96.909 C 111.524 96.761 112.333 96.605 113.09 96.443 C 113.843 96.284 114.509 96.073 115.087 95.814 C 115.664 95.553 116.101 95.158 116.4 94.624 C 116.936 93.662 116.972 92.643 116.508 91.567 C 116.042 90.493 115.138 89.581 113.794 88.831 C 111.639 87.629 109.452 87.823 107.234 89.412 C 106.952 89.62 106.703 89.755 106.485 89.817 C 106.267 89.879 105.994 89.818 105.665 89.634 L 102.584 87.916 C 102.355 87.788 102.201 87.602 102.12 87.358 C 102.041 87.113 102.073 86.865 102.214 86.611 C 102.733 85.738 103.512 84.983 104.549 84.348 C 105.585 83.711 106.75 83.264 108.041 83.004 C 109.334 82.744 110.704 82.703 112.152 82.878 C 113.601 83.055 114.996 83.517 116.341 84.267 Z " fill="rgb(0,179,169)"/><path d=" M 103.348 112.273 C 103.156 112.273 102.972 112.223 102.795 112.124 L 99.523 110.299 C 99.245 110.144 99.059 109.909 98.97 109.593 C 98.936 109.476 98.92 109.363 98.92 109.252 C 98.92 109.06 98.97 108.877 99.068 108.7 L 100.936 105.351 C 101.092 105.074 101.327 104.889 101.644 104.799 C 101.76 104.766 101.873 104.75 101.984 104.75 C 102.176 104.75 102.36 104.799 102.536 104.897 L 105.808 106.722 C 106.086 106.878 106.271 107.114 106.362 107.43 C 106.394 107.546 106.41 107.66 106.41 107.771 C 106.41 107.963 106.36 108.146 106.262 108.322 L 104.394 111.671 C 104.239 111.95 104.003 112.134 103.687 112.223 C 103.571 112.256 103.458 112.273 103.348 112.273 Z " fill="rgb(0,175,156)"/><path d=" M 107.4 104.474 C 107.228 104.474 107.059 104.427 106.892 104.334 L 104 102.721 C 103.72 102.566 103.53 102.326 103.427 102.003 C 103.391 101.887 103.372 101.775 103.372 101.666 C 103.372 101.473 103.43 101.291 103.546 101.121 C 104.149 100.16 104.842 99.409 105.628 98.866 C 106.411 98.323 107.231 97.898 108.083 97.592 C 108.935 97.286 109.794 97.059 110.66 96.909 C 111.524 96.761 112.333 96.605 113.09 96.443 C 113.843 96.284 114.509 96.073 115.087 95.814 C 115.664 95.553 116.101 95.158 116.4 94.624 C 116.687 94.109 116.83 93.578 116.831 93.031 C 116.831 92.555 116.724 92.067 116.508 91.567 C 116.042 90.493 115.138 89.581 113.794 88.831 C 112.866 88.313 111.932 88.055 110.992 88.055 C 109.75 88.055 108.497 88.507 107.234 89.412 C 106.952 89.62 106.703 89.755 106.485 89.817 C 106.43 89.832 106.372 89.84 106.31 89.84 C 106.126 89.84 105.911 89.771 105.665 89.634 L 102.584 87.916 C 102.355 87.788 102.201 87.602 102.12 87.358 C 102.092 87.27 102.078 87.181 102.078 87.092 C 102.078 86.934 102.123 86.774 102.214 86.611 C 102.733 85.738 103.512 84.983 104.549 84.348 C 105.585 83.711 106.75 83.264 108.041 83.004 C 108.811 82.849 109.609 82.772 110.434 82.772 C 110.994 82.772 111.566 82.807 112.152 82.878 C 113.601 83.055 114.996 83.517 116.341 84.267 C 117.532 84.932 118.601 85.743 119.546 86.704 C 120.49 87.663 121.22 88.709 121.735 89.844 C 122.248 90.979 122.507 92.17 122.508 93.418 C 122.508 93.423 122.508 93.428 122.508 93.433 C 122.508 94.678 122.161 95.918 121.472 97.155 C 120.906 98.169 120.254 98.963 119.52 99.534 C 118.786 100.105 118.005 100.551 117.178 100.871 C 116.352 101.191 115.509 101.436 114.649 101.605 C 113.79 101.774 112.977 101.934 112.21 102.089 C 111.442 102.242 110.726 102.451 110.065 102.714 C 109.403 102.975 108.879 103.365 108.492 103.88 C 108.284 104.131 108.036 104.307 107.746 104.412 C 107.63 104.453 107.514 104.474 107.4 104.474 Z " fill="rgb(0,175,156)"/><path d=" M 24.501 100.842 C 25.688 99.746 26.997 98.841 28.425 98.132 C 29.854 97.423 31.302 96.986 32.769 96.827 C 34.237 96.666 35.673 96.815 37.079 97.272 C 38.486 97.731 39.761 98.579 40.905 99.818 C 41.838 100.829 42.492 101.854 42.863 102.89 C 43.237 103.928 43.451 104.972 43.506 106.021 C 43.561 107.071 43.525 108.111 43.401 109.14 C 43.273 110.171 43.155 111.146 43.045 112.067 C 42.935 112.987 42.906 113.869 42.958 114.711 C 43.009 115.554 43.255 116.288 43.692 116.913 C 43.898 117.239 44.005 117.583 44.015 117.95 C 44.025 118.315 43.891 118.625 43.613 118.882 L 40.73 121.543 C 40.452 121.8 40.113 121.927 39.711 121.923 C 39.31 121.919 38.993 121.767 38.761 121.465 C 37.902 120.431 37.31 119.374 36.989 118.289 C 36.668 117.205 36.491 116.127 36.46 115.054 C 36.43 113.982 36.49 112.931 36.641 111.901 C 36.792 110.873 36.915 109.904 37.013 108.994 C 37.11 108.085 37.119 107.259 37.039 106.512 C 36.959 105.767 36.674 105.127 36.184 104.596 C 35.297 103.636 34.164 103.22 32.783 103.347 C 31.402 103.474 30.041 104.156 28.702 105.392 C 26.553 107.378 25.964 109.912 26.936 112.994 C 27.067 113.389 27.127 113.721 27.117 113.986 C 27.105 114.255 26.936 114.539 26.608 114.843 L 23.536 117.679 C 23.308 117.889 23.042 117.994 22.738 117.994 C 22.433 117.994 22.165 117.867 21.931 117.615 C 21.139 116.707 20.576 115.553 20.243 114.151 C 19.91 112.749 19.834 111.273 20.018 109.721 C 20.202 108.171 20.659 106.613 21.392 105.047 C 22.124 103.481 23.16 102.08 24.501 100.842 Z  M 45.903 120.983 C 46.181 120.727 46.515 120.606 46.904 120.621 C 47.293 120.638 47.616 120.784 47.873 121.062 L 50.953 124.399 C 51.211 124.678 51.331 125.011 51.315 125.4 C 51.3 125.789 51.153 126.112 50.875 126.368 L 47.614 129.379 C 47.334 129.637 47.003 129.757 46.614 129.741 C 46.223 129.726 45.901 129.578 45.645 129.3 L 42.563 125.963 C 42.306 125.685 42.185 125.353 42.202 124.962 C 42.217 124.574 42.363 124.251 42.642 123.994 L 45.903 120.983 Z " fill="rgb(0,179,169)"/><path d=" M 46.682 129.742 C 46.659 129.742 46.637 129.742 46.614 129.741 C 46.223 129.726 45.901 129.578 45.645 129.3 L 42.563 125.963 C 42.323 125.702 42.201 125.394 42.2 125.034 C 42.2 125.01 42.201 124.986 42.202 124.962 C 42.217 124.574 42.363 124.251 42.642 123.994 L 45.903 120.983 C 46.166 120.741 46.479 120.62 46.841 120.62 C 46.862 120.62 46.883 120.62 46.904 120.621 C 47.293 120.638 47.616 120.784 47.873 121.062 L 50.953 124.399 C 51.195 124.66 51.316 124.969 51.316 125.327 C 51.316 125.351 51.316 125.375 51.315 125.4 C 51.3 125.789 51.153 126.112 50.875 126.368 L 47.614 129.379 C 47.351 129.621 47.042 129.742 46.682 129.742 Z " fill="rgb(134,208,207)"/><path d=" M 39.729 121.923 C 39.723 121.923 39.717 121.923 39.711 121.923 C 39.31 121.919 38.993 121.767 38.761 121.465 C 37.902 120.431 37.31 119.374 36.989 118.289 C 36.668 117.205 36.491 116.127 36.46 115.054 C 36.455 114.869 36.452 114.686 36.453 114.503 C 36.453 113.621 36.516 112.754 36.641 111.901 C 36.792 110.873 36.915 109.904 37.013 108.994 C 37.066 108.497 37.093 108.025 37.093 107.577 C 37.093 107.205 37.075 106.85 37.039 106.512 C 36.959 105.767 36.674 105.127 36.184 104.596 C 35.401 103.748 34.426 103.325 33.257 103.325 C 33.102 103.325 32.944 103.332 32.783 103.347 C 31.402 103.474 30.041 104.156 28.702 105.392 C 27.22 106.761 26.48 108.391 26.482 110.281 C 26.483 111.132 26.634 112.037 26.936 112.994 C 27.057 113.358 27.118 113.668 27.118 113.923 C 27.118 113.944 27.117 113.965 27.117 113.986 C 27.105 114.255 26.936 114.539 26.608 114.843 L 23.536 117.679 C 23.308 117.889 23.042 117.994 22.738 117.994 C 22.433 117.994 22.165 117.867 21.931 117.615 C 21.139 116.707 20.576 115.553 20.243 114.151 C 20.027 113.242 19.919 112.302 19.92 111.33 C 19.921 110.803 19.954 110.267 20.018 109.721 C 20.202 108.171 20.659 106.613 21.392 105.047 C 22.124 103.481 23.16 102.08 24.501 100.842 C 25.688 99.746 26.997 98.841 28.425 98.132 C 29.854 97.423 31.302 96.986 32.769 96.827 C 33.15 96.785 33.529 96.764 33.906 96.764 C 34.98 96.764 36.038 96.933 37.079 97.272 C 38.486 97.731 39.761 98.579 40.905 99.818 C 41.838 100.829 42.492 101.854 42.863 102.89 C 43.237 103.928 43.451 104.972 43.506 106.021 C 43.523 106.341 43.531 106.66 43.531 106.978 C 43.531 107.704 43.487 108.424 43.401 109.14 C 43.273 110.171 43.155 111.146 43.045 112.067 C 42.97 112.692 42.933 113.3 42.933 113.89 C 42.933 114.168 42.942 114.441 42.958 114.711 C 43.009 115.554 43.255 116.288 43.692 116.913 C 43.898 117.239 44.005 117.583 44.015 117.95 C 44.016 117.961 44.016 117.972 44.016 117.984 C 44.017 118.335 43.882 118.633 43.613 118.882 L 40.73 121.543 C 40.457 121.796 40.123 121.923 39.729 121.923 Z " fill="rgb(134,208,207)"/><path d=" M 249.537 190.757 C 246.682 189.124 234.687 182.191 230.607 179.833 C 229.795 179.363 229.289 179.071 229.24 179.043 C 227.237 177.891 225.011 177.564 222.574 178.012 C 220.841 178.331 219.005 179.03 217.053 180.157 C 216.77 180.32 216.499 180.512 216.221 180.687 C 211.615 183.597 207.654 188.181 204.356 194.483 C 200.856 201.169 199.108 207.821 199.108 214.443 C 199.108 221.067 200.874 225.715 204.407 228.384 C 204.772 228.66 205.144 228.905 205.524 229.121 C 208.832 230.999 225.439 240.616 225.808 240.828 L 225.892 240.868 C 225.494 240.645 225.103 240.396 224.722 240.108 C 221.189 237.439 219.423 232.792 219.423 226.167 C 219.423 219.545 221.17 212.894 224.67 206.207 C 228.168 199.525 232.399 194.749 237.367 191.881 C 242.098 189.15 246.181 188.797 249.623 190.812 L 249.537 190.757 Z " fill="rgb(0,179,169)"/><path d=" M 225.414 204.846 L 225.409 204.844 C 226.729 202.489 228.148 200.392 229.666 198.551 C 228.149 200.394 226.731 202.493 225.414 204.846 Z  M 249.624 190.816 C 248.624 190.229 247.568 189.842 246.458 189.655 C 247.553 189.838 248.595 190.217 249.585 190.79 L 249.624 190.816 Z  M 208.209 188.296 C 210.347 185.427 212.698 183.106 215.259 181.326 C 212.7 183.108 210.349 185.429 208.209 188.296 Z  M 229.731 179.326 C 229.471 179.176 229.306 179.081 229.254 179.051 C 229.301 179.074 229.466 179.171 229.731 179.326 Z " fill="rgb(148,150,151)"/><path d=" M 225.409 204.844 L 205.104 193.116 C 206.084 191.366 207.118 189.76 208.209 188.296 C 210.349 185.429 212.7 183.108 215.259 181.326 C 215.552 181.122 215.847 180.925 216.146 180.736 L 216.164 180.746 L 220.39 183.18 L 222.62 184.467 L 222.62 184.464 L 222.624 184.466 L 222.547 180.087 L 222.515 178.231 L 222.519 178.067 C 222.519 178.054 222.519 178.04 222.519 178.026 C 222.537 178.023 222.556 178.02 222.574 178.016 C 223.273 177.888 223.954 177.823 224.617 177.823 C 226.268 177.823 227.809 178.226 229.244 179.046 C 229.246 179.047 229.25 179.049 229.254 179.051 C 229.306 179.081 229.471 179.176 229.731 179.326 C 229.955 179.458 230.25 179.631 230.604 179.836 C 234.684 182.186 246.684 189.126 249.534 190.756 L 249.585 190.79 C 248.595 190.217 247.553 189.838 246.458 189.655 C 245.943 189.569 245.416 189.526 244.877 189.526 C 242.585 189.526 240.08 190.309 237.364 191.876 C 234.566 193.493 231.998 195.72 229.666 198.551 C 228.148 200.392 226.729 202.489 225.409 204.844 Z " fill="rgb(0,147,128)"/><path d=" M 225.894 240.866 L 225.868 240.854 C 225.478 240.635 225.095 240.391 224.722 240.108 C 223.836 239.439 223.062 238.646 222.398 237.728 C 223.062 238.645 223.837 239.437 224.724 240.106 C 225.104 240.396 225.494 240.646 225.894 240.866 Z  M 225.806 240.827 L 225.804 240.826 C 225.667 240.748 223.309 239.383 220.224 237.598 C 223.296 239.375 225.649 240.736 225.806 240.827 Z " fill="rgb(163,165,167)"/><path d=" M 225.405 204.85 C 225.406 204.848 225.408 204.845 225.409 204.844 L 225.414 204.846 C 225.413 204.848 225.413 204.849 225.412 204.85 C 225.405 204.85 225.412 204.85 225.405 204.85 Z " fill="rgb(169,172,173)"/><path d=" M 219.915 231.673 C 219.587 230.021 219.423 228.186 219.423 226.167 C 219.423 219.545 221.17 212.894 224.67 206.207 C 224.911 205.746 225.156 205.293 225.405 204.85 C 225.412 204.85 225.405 204.85 225.412 204.85 C 225.163 205.289 224.913 205.748 224.674 206.206 C 221.174 212.896 219.424 219.546 219.424 226.166 C 219.424 228.186 219.587 230.021 219.915 231.673 Z " fill="rgb(163,165,167)"/><path d=" M 200.109 205.731 C 200.97 201.991 202.385 198.243 204.354 194.486 C 204.534 194.134 204.719 193.788 204.91 193.451 C 204.723 193.789 204.539 194.133 204.356 194.483 C 202.388 198.243 200.974 201.992 200.113 205.731 L 200.109 205.731 Z " fill="rgb(169,172,173)"/><path d=" M 204.671 228.577 C 204.582 228.515 204.493 228.451 204.404 228.386 C 200.874 225.716 199.104 221.066 199.104 214.446 C 199.104 211.545 199.439 208.64 200.109 205.731 L 200.113 205.731 C 199.443 208.641 199.108 211.545 199.108 214.443 C 199.108 221.067 200.874 225.715 204.407 228.384 C 204.495 228.45 204.582 228.514 204.671 228.577 Z " fill="rgb(163,165,167)"/><path d=" M 225.868 240.854 L 225.806 240.827 C 225.649 240.736 223.296 239.375 220.224 237.598 C 214.97 234.558 207.609 230.301 205.524 229.116 C 205.235 228.957 204.952 228.774 204.671 228.577 C 204.582 228.514 204.495 228.45 204.407 228.384 C 200.874 225.715 199.108 221.067 199.108 214.443 C 199.108 211.545 199.443 208.641 200.113 205.731 C 200.974 201.992 202.388 198.243 204.356 194.483 C 204.539 194.133 204.723 193.789 204.91 193.451 C 204.974 193.338 205.039 193.226 205.104 193.116 L 225.409 204.844 C 225.408 204.845 225.406 204.848 225.405 204.85 C 225.156 205.293 224.911 205.746 224.67 206.207 C 221.17 212.894 219.423 219.545 219.423 226.167 C 219.423 228.186 219.587 230.021 219.915 231.673 C 220.393 234.083 221.22 236.101 222.398 237.728 C 223.062 238.646 223.836 239.439 224.722 240.108 C 225.095 240.391 225.478 240.635 225.868 240.854 Z " fill="rgb(0,171,147)"/><path d=" M 240.67 19.155 C 250.534 13.46 258.929 11.04 265.855 11.89 C 268.781 12.25 271.458 13.141 273.889 14.552 L 273.693 14.432 C 271.314 13.088 256.975 4.822 253.702 2.893 C 251.237 1.441 248.516 0.532 245.542 0.166 C 238.616 -0.685 230.221 1.736 220.356 7.431 C 205.035 16.276 192.686 29.269 183.312 46.409 C 173.936 63.549 169.319 81.059 169.46 98.94 L 189.774 110.664 C 189.633 92.784 194.25 75.273 203.627 58.133 C 213 40.994 225.349 28.001 240.67 19.155 Z " fill="rgb(0,179,169)"/><path d=" M 202.484 60.276 L 202.481 60.274 C 202.688 59.878 202.897 59.484 203.109 59.088 C 202.898 59.485 202.689 59.882 202.484 60.276 Z  M 205.323 55.132 C 214.473 39.47 226.256 27.477 240.67 19.155 C 242.609 18.035 244.492 17.042 246.317 16.176 C 244.492 17.043 242.612 18.036 240.674 19.156 C 226.262 27.473 214.478 39.47 205.323 55.132 Z  M 184.351 44.548 C 193.589 28.324 205.592 15.954 220.354 7.426 C 224.688 4.928 228.737 3.06 232.502 1.822 C 228.736 3.06 224.688 4.93 220.356 7.431 C 205.594 15.953 193.592 28.326 184.351 44.548 Z  M 273.037 14.084 C 271.18 13.13 269.187 12.454 267.054 12.07 C 269.187 12.448 271.18 13.121 273.037 14.084 Z " fill="rgb(195,197,197)"/><path d=" M 202.481 60.274 L 182.174 48.546 C 182.544 47.836 182.924 47.116 183.314 46.406 C 183.656 45.781 184.002 45.161 184.351 44.548 C 193.592 28.326 205.594 15.953 220.356 7.431 C 224.688 4.93 228.736 3.06 232.502 1.822 C 236.196 0.608 239.618 0.001 242.767 0.001 C 243.718 0.001 244.643 0.056 245.544 0.166 C 248.513 0.536 251.234 1.436 253.704 2.896 C 256.974 4.826 271.314 13.086 273.694 14.436 C 273.477 14.315 273.258 14.198 273.037 14.084 C 271.18 13.121 269.187 12.448 267.054 12.07 C 266.659 11.999 266.259 11.937 265.854 11.886 C 264.956 11.776 264.031 11.721 263.083 11.721 C 258.163 11.721 252.572 13.205 246.317 16.176 C 244.492 17.042 242.609 18.035 240.67 19.155 C 226.256 27.477 214.473 39.47 205.323 55.132 C 204.746 56.119 204.18 57.12 203.624 58.136 C 203.45 58.452 203.279 58.77 203.109 59.088 C 202.897 59.484 202.688 59.878 202.481 60.274 Z " fill="rgb(0,175,156)"/><path d=" M 189.774 110.666 L 184.935 107.872 L 189.774 110.664 C 189.774 110.665 189.774 110.665 189.774 110.666 Z  M 189.773 110.61 C 189.648 93.493 193.884 76.713 202.481 60.274 L 202.484 60.276 C 193.883 76.718 189.653 93.489 189.773 110.61 Z " fill="rgb(169,172,173)"/><path d=" M 189.774 110.664 L 184.935 107.872 L 169.464 98.936 C 169.334 81.796 173.554 65.006 182.174 48.546 L 202.481 60.274 C 193.884 76.713 189.648 93.493 189.773 110.61 C 189.773 110.628 189.774 110.647 189.774 110.664 Z " fill="rgb(0,171,147)"/><path d=" M 254.47 52.394 C 250.785 50.437 245.862 51.208 239.704 54.7 C 239.497 58.354 238.754 61.927 237.461 65.416 C 235.922 69.571 231.443 78.125 224.029 91.081 C 216.332 104.48 210.77 117.275 207.344 129.468 C 203.915 141.662 202.202 154.008 202.202 166.507 L 202.306 172.743 L 216.166 180.742 L 222.62 184.467 L 222.515 178.231 L 222.519 178.067 C 222.534 165.625 224.244 153.333 227.658 141.192 C 231.085 128.999 236.646 116.204 244.343 102.806 C 251.758 89.849 256.236 81.296 257.775 77.141 C 259.313 72.989 260.084 68.72 260.084 64.334 C 260.084 58.366 258.212 54.386 254.47 52.394 Z " fill="rgb(0,179,169)"/><path d=" M 222.624 184.466 L 222.62 184.464 L 222.547 180.087 L 222.624 184.466 Z " fill="rgb(0,104,91)"/><path d=" M 216.145 180.735 L 202.304 172.746 L 202.259 169.933 L 202.306 172.743 L 216.149 180.732 C 216.147 180.733 216.146 180.734 216.145 180.735 Z " fill="rgb(169,172,173)"/><path d=" M 216.146 180.736 L 216.145 180.735 C 216.146 180.734 216.147 180.733 216.149 180.732 L 216.15 180.733 C 216.149 180.734 216.147 180.735 216.146 180.736 Z " fill="rgb(0,171,147)"/><path d=" M 220.39 183.18 L 216.164 180.746 L 216.146 180.736 C 216.147 180.735 216.149 180.734 216.15 180.733 L 216.166 180.742 L 220.39 183.18 Z " fill="rgb(0,104,91)"/><path d=" M 205.673 136.006 C 206.175 133.821 206.732 131.641 207.344 129.466 C 207.363 129.398 207.382 129.331 207.401 129.263 C 207.382 129.331 207.363 129.4 207.344 129.468 C 206.732 131.642 206.175 133.822 205.673 136.006 Z  M 239.087 112.512 C 240.712 109.313 242.464 106.077 244.343 102.806 C 244.641 102.284 244.936 101.768 245.225 101.26 C 244.936 101.769 244.642 102.284 244.344 102.807 C 242.464 106.078 240.712 109.313 239.087 112.512 Z  M 215.221 108.169 C 217.755 102.584 220.689 96.887 224.024 91.076 C 226.118 87.422 227.978 84.118 229.605 81.164 C 227.98 84.119 226.121 87.425 224.029 91.081 C 220.691 96.891 217.756 102.586 215.221 108.169 Z " fill="rgb(169,172,173)"/><path d=" M 222.62 184.464 L 220.39 183.18 L 216.166 180.742 L 216.15 180.733 L 216.149 180.732 L 202.306 172.743 L 202.259 169.933 L 202.204 166.506 C 202.204 156.235 203.358 146.072 205.673 136.006 C 206.175 133.822 206.732 131.642 207.344 129.468 C 207.363 129.4 207.382 129.331 207.401 129.263 C 209.338 122.423 211.945 115.391 215.221 108.169 C 217.756 102.586 220.691 96.891 224.029 91.081 C 226.121 87.425 227.98 84.119 229.605 81.164 C 232.126 76.584 234.086 72.846 235.484 69.946 L 235.484 69.946 L 235.484 69.946 L 255.784 81.666 C 253.622 86.169 250.097 92.695 245.225 101.26 C 244.936 101.768 244.641 102.284 244.343 102.806 C 242.464 106.077 240.712 109.313 239.087 112.512 C 234.056 122.416 230.246 131.975 227.654 141.196 C 224.244 153.336 222.534 165.626 222.514 178.066 L 222.514 178.226 L 222.547 180.087 L 222.62 184.464 Z " fill="rgb(0,171,147)"/><path d=" M 259.925 67.764 C 260.031 66.629 260.084 65.486 260.084 64.335 C 260.084 64.336 260.084 64.336 260.084 64.336 C 260.084 65.487 260.031 66.629 259.925 67.764 Z  M 259.947 61.685 C 259.947 61.684 259.947 61.684 259.947 61.683 C 259.947 61.684 259.947 61.685 259.947 61.685 Z  M 259.945 61.67 C 259.45 57.165 257.624 54.073 254.47 52.394 C 253.147 51.692 251.665 51.341 250.024 51.341 C 247.092 51.341 243.652 52.461 239.704 54.7 C 239.575 56.979 239.237 59.226 238.688 61.441 C 239.236 59.226 239.573 56.979 239.704 54.696 C 243.651 52.46 247.089 51.341 250.021 51.341 C 251.665 51.341 253.149 51.692 254.474 52.396 C 257.626 54.073 259.45 57.165 259.945 61.67 Z " fill="rgb(148,150,151)"/><path d=" M 255.784 81.666 L 255.784 81.666 L 255.784 81.666 L 235.484 69.946 C 236.374 68.096 237.034 66.586 237.464 65.416 C 237.949 64.103 238.357 62.778 238.688 61.441 C 239.237 59.226 239.575 56.979 239.704 54.7 C 243.652 52.461 247.092 51.341 250.024 51.341 C 251.665 51.341 253.147 51.692 254.47 52.394 C 257.624 54.073 259.45 57.165 259.945 61.67 C 259.946 61.675 259.946 61.679 259.947 61.683 C 259.947 61.684 259.947 61.684 259.947 61.685 C 260.038 62.52 260.084 63.403 260.084 64.335 C 260.084 65.486 260.031 66.629 259.925 67.764 C 259.626 70.951 258.91 74.076 257.774 77.136 C 257.344 78.307 256.674 79.816 255.784 81.666 Z " fill="rgb(0,147,128)"/><path d=" M 217.268 94.79 L 189.774 110.664 C 189.633 92.784 194.25 75.273 203.626 58.133 C 213 40.994 225.349 28.001 240.67 19.155 C 250.534 13.46 258.93 11.04 265.856 11.89 C 272.782 12.743 278.325 16.538 282.488 23.275 C 286.65 30.015 288.732 38.419 288.732 48.493 C 288.732 53.998 288.067 59.792 286.739 65.875 C 285.409 71.96 283.31 78.629 280.442 85.881 C 278.763 90.117 274.74 97.943 268.374 109.359 C 262.288 120.243 258.473 127.646 256.935 131.565 C 255.396 135.486 254.102 140.266 253.053 145.909 C 252.004 151.552 251.338 158.932 251.059 168.048 L 222.62 184.467 L 222.516 178.231 C 222.516 165.732 224.229 153.386 227.658 141.192 C 231.085 128.999 236.646 116.204 244.343 102.806 C 251.758 89.85 256.236 81.296 257.775 77.141 C 259.313 72.989 260.084 68.72 260.084 64.334 C 260.084 58.366 258.212 54.386 254.47 52.394 C 250.726 50.406 245.708 51.227 239.411 54.862 C 232.973 58.579 227.692 64.158 223.565 71.597 C 219.436 79.04 217.338 86.771 217.268 94.79 Z " fill="rgb(0,179,169)"/><path d=" M 237.312 191.936 C 242.418 188.988 246.773 188.806 250.377 191.389 C 253.979 193.975 255.781 198.577 255.781 205.199 C 255.781 211.823 253.998 218.52 250.43 225.289 C 246.861 232.058 242.559 236.899 237.522 239.807 C 232.485 242.715 228.199 242.833 224.666 240.163 C 221.134 237.494 219.367 232.847 219.367 226.223 C 219.367 219.6 221.115 212.949 224.615 206.263 C 228.112 199.58 232.344 194.805 237.312 191.936 Z " fill="rgb(0,179,169)"/></g></g></svg>